<?xml version="1.0" encoding="UTF-8" standalone="no"?>
<!-- Created with Inkscape (http://www.inkscape.org/) -->
<svg xmlns:dc="http://purl.org/dc/elements/1.1/" xmlns:cc="http://creativecommons.org/ns#" xmlns:rdf="http://www.w3.org/1999/02/22-rdf-syntax-ns#" xmlns:svg="http://www.w3.org/2000/svg" xmlns="http://www.w3.org/2000/svg" xmlns:sodipodi="http://sodipodi.sourceforge.net/DTD/sodipodi-0.dtd" xmlns:inkscape="http://www.inkscape.org/namespaces/inkscape" id="svg2837" version="1.1" inkscape:version="0.47 r22583" width="200" height="240" xml:space="preserve" sodipodi:docname="2010_uni-luebeck-logo-siegel.pdf"><metadata id="metadata2843"><rdf:RDF><cc:Work rdf:about=""><dc:format>image/svg+xml</dc:format><dc:type rdf:resource="http://purl.org/dc/dcmitype/StillImage"/><dc:title/></cc:Work></rdf:RDF></metadata><defs id="defs2841"><inkscape:perspective sodipodi:type="inkscape:persp3d" inkscape:vp_x="0 : 0.5 : 1" inkscape:vp_y="0 : 1000 : 0" inkscape:vp_z="1 : 0.5 : 1" inkscape:persp3d-origin="0.5 : 0.33333333 : 1" id="perspective2845"/><clipPath clipPathUnits="userSpaceOnUse" id="clipPath2853"><path d="m 0,0 595.276,0 0,419.528 L 0,419.528 0,0 z" id="path2855"/></clipPath></defs><sodipodi:namedview pagecolor="#ffffff" bordercolor="#666666" borderopacity="1" objecttolerance="10" gridtolerance="10" guidetolerance="10" inkscape:pageopacity="0" inkscape:pageshadow="2" inkscape:window-width="1280" inkscape:window-height="775" id="namedview2839" showgrid="false" inkscape:zoom="0.63643794" inkscape:cx="605.72635" inkscape:cy="115.96127" inkscape:window-x="0" inkscape:window-y="25" inkscape:window-maximized="0" inkscape:current-layer="g2847"/><g id="g2847" inkscape:groupmode="layer" inkscape:label="2010_uni-luebeck-logo-siegel" transform="matrix(1.25,0,0,-1.25,0,240.00003)"><g id="g2849" transform="translate(-216.83182,-113.12965)"><g id="g2851" clip-path="url(#clipPath2853)"><g id="g2857" transform="translate(340.8525,218.0205)"><path d="m 0,0 c -0.503,0 -3.492,-1.597 -3.978,-2.01 -2.351,2.531 -0.74,1.781 -2.903,1.213 -0.973,1.065 -1.946,2.14 -2.919,3.189 -0.233,-0.072 -0.446,-0.162 -0.658,-0.251 0.086,-0.549 1.967,-4.376 1.631,-4.672 -1.186,0.685 -2.351,1.365 -3.516,2.052 -0.188,4.142 4.048,4.535 5.781,7.336 -0.082,0.134 -0.147,0.251 -0.213,0.363 -5.736,0.912 -12.449,2.691 -17.572,-0.319 -0.233,-1.365 -2.351,-7.698 -3.091,-7.698 -0.531,0.202 -1.059,0.404 -1.57,0.586 0.11,0.354 1.145,0.286 1.464,0.299 -0.553,2.232 -0.679,2.989 -2.394,4.26 -2.817,3.353 -4.489,7.065 -6.521,10.755 -1.566,2.643 -3.999,5.239 -4.743,7.793 -0.274,0.092 -0.531,0.182 -0.785,0.253 -0.102,0.409 -0.188,0.797 -0.273,1.184 -0.7,4.19 -3.496,6.378 -0.7,10.391 -0.147,0.907 -0.278,1.799 -0.401,2.686 -0.997,0.617 -0.932,0.57 -1.271,1.527 0.912,0.73 1.925,-0.386 2.711,-1.141 7.686,-1.022 2.69,8.727 -1.571,3.649 -2.432,1.049 0.785,3.279 0.279,6.08 -1.82,0.617 -3.259,1.278 -4.809,0.115 -1.5,-2.323 0.998,-3.668 0.847,-6.152 -1.947,-0.182 -3.325,3.189 -5.884,0.979 -2.436,-8.087 3.197,-2.892 6.162,-3.416 0.233,-1.825 -3.369,-1.892 -0.487,-5.605 -4.321,-1.161 -8.831,-1.298 -13.128,-1.96 -0.151,-0.479 -0.299,-0.959 -0.446,-1.458 0.188,-0.114 0.38,-0.225 0.593,-0.339 -0.021,-0.546 -0.213,-1.188 -0.147,-1.942 l 0.572,-0.268 c -0.384,-0.846 -1.124,-0.573 -0.045,-1.732 2.756,-0.412 7.429,0.886 10.504,1.205 0,-5.195 -14.081,-15.56 -9.359,-19.069 0.887,1.046 1.551,2.57 1.807,2.934 0.456,0.653 3.929,6.017 4.501,6.633 0.127,-0.045 0.258,-0.09 0.405,-0.16 0.568,-1.842 -2.224,-8.655 -2.947,-11.119 -0.335,-2.14 -0.442,-4.536 -1.583,-6.537 -0.903,0.644 0.389,1.11 -1.169,1.552 0.85,1.999 -0.102,1.431 1.738,2.89 -0.168,2.848 -3.745,4.033 -5.569,5.058 0.147,3.261 -1.247,3.51 -3.324,2.117 0.213,-0.157 0.425,-0.339 0.654,-0.521 l 0,-0.617 c -1.627,-1.161 -3.385,-2.392 -4.975,-3.418 -1.542,1.006 1.312,7.132 1.672,8.522 -0.168,5.195 0.024,9.183 -4.952,9.846 -0.401,-0.779 0.381,-3.991 0.508,-5.267 -2.098,-2.549 -4.384,-4.17 -2.265,-7.242 0.298,-2.872 0.911,-3.257 3.663,-3.989 0,-0.159 0.02,-0.343 0.041,-0.523 l -2.519,0 c 0,-0.251 0,-0.525 0.021,-0.801 0.466,-0.25 1.991,0.069 2.71,0.143 0,-0.164 0,-0.346 0.021,-0.527 -0.573,-0.299 -2.138,-0.138 -2.838,-0.299 -0.082,-1.48 -0.233,-2.915 -0.527,-4.373 -0.34,-0.57 -2.245,-3.761 -2.605,-3.369 1.673,3.369 2.772,6.262 -1.23,2.48 -2.351,-1.045 -1.799,1.848 -4.04,-1.642 -1.611,1.256 -1.549,1.415 -3.156,1.346 -0.192,0.23 -0.38,0.453 -0.552,0.682 -0.572,0.023 -1.12,0.023 -1.672,0.023 -0.193,-0.362 -0.385,-0.728 -0.552,-1.116 0.127,-0.338 0.274,-0.704 0.425,-1.068 -0.151,-3.714 2.478,-3.943 5.25,-5.56 -0.466,-0.501 -3.664,1.388 -4.763,1.231 -0.127,-0.25 -0.254,-0.505 -0.36,-0.757 l 0.825,-1.157 c 1.632,-0.138 4.384,-2.919 6.015,-4.149 -0.278,-2.963 -0.532,-5.925 -0.785,-8.887 0.147,-0.086 0.294,-0.202 0.466,-0.317 -0.257,-1.345 -1.018,-3.739 -1.018,-5.082 1.398,-1.253 0.065,-1.821 0,-4.168 1.545,-1.662 1.124,-3.007 1.079,-5.563 0.217,-0.182 0.45,-0.364 0.679,-0.567 0.025,-1.434 0.041,-2.894 0.086,-4.355 0.339,-0.292 0.679,-0.589 1.038,-0.887 0.041,-1.799 0.189,-3.095 0.589,-5.011 -1.161,-0.615 -2.265,-0.411 -3.491,-1.006 l 0.445,-0.545 c 3.876,-0.205 6.628,1.776 10.205,1.776 5.908,-3.167 4.89,-5.943 11.963,-1.932 3.41,0.478 4.322,-5.605 9.04,-3.079 7.179,5.994 5.36,2.941 11.541,-1.482 0.786,0.023 1.567,0.023 2.352,0.023 6.162,4.326 3.958,6.219 10.775,0.662 3.239,-0.547 5.487,3.876 7.519,3.876 5.295,-1.895 6.35,-2.28 12.024,0.66 -1.799,2.322 -2.203,-0.96 -3.83,-0.96 -0.168,0.913 0.045,1.574 0.064,2.326 1.652,1.57 3.304,3.144 4.956,4.692 l 0,0.09 c -1.059,0.546 -2.118,1.075 -3.157,1.596 0.087,1.777 -0.106,3.717 1.162,4.807 -1.162,6.334 -0.695,13.238 -0.27,19.571 0.441,0.687 0.887,1.368 1.333,2.03 1.778,2.118 4.043,2.666 5.883,4.759 L 0,-7.202 C -1.839,-7.593 -2.858,-7.977 -4.403,-8.799 -5.127,-6.979 3.406,-7.688 0,0 m -58.717,9.879 0.092,-1.165 c -0.061,0 -0.122,0 -0.19,-0.028 -0.692,0.608 -0.564,0.712 -0.509,1.294 0.258,0.034 0.258,0.034 0.607,-0.101 m 0.749,0.14 c -0.718,0.286 -0.813,0.989 -0.985,1.418 0.102,0.136 0.204,0.241 0.299,0.349 1.189,-0.244 0.686,-1.767 0.686,-1.767 m 0.588,3.087 c 0.329,-0.725 0.417,-0.914 0.371,-2.108 -0.72,1.029 -0.741,1.124 -0.804,2.108 l 0.433,0 z m 0.621,1.438 c 0.191,-0.367 0.412,-0.775 0.647,-1.186 -0.199,-0.732 -0.199,-0.732 -0.265,-0.699 -0.353,0.493 -0.654,0.948 -0.955,1.396 l 0.573,0.489 z m 0.879,1.355 c 0.369,-0.425 0.943,-0.82 0.878,-1.827 -0.152,-0.067 -0.298,-0.164 -0.421,-0.264 -0.304,0.554 -0.609,1.116 -0.908,1.637 0.153,0.155 0.299,0.322 0.451,0.454 m 1.623,0.712 c 0,-0.323 0,-0.647 0.026,-0.969 -0.163,-0.089 -0.327,-0.208 -0.491,-0.324 -0.654,1.09 -0.522,1.032 -0.575,1.939 0.686,0 0.459,-0.488 1.04,-0.646 m 0.973,0.175 c -0.122,-0.134 -0.272,-0.331 -0.423,-0.331 l -0.632,1.458 c 0.064,0.127 0.122,0.223 0.209,0.327 0.603,-0.104 0.69,-0.455 0.846,-1.454 m 0.352,1.44 c -0.335,0.591 -0.381,0.843 -0.401,1.323 0.102,0.113 0.209,0.227 0.335,0.342 0.442,-0.323 0.254,-1.873 0.066,-1.665 m 35.785,-64.846 c 0.122,0.205 0.274,0.388 0.421,0.569 2.666,-0.569 3.708,-0.272 6.501,0.433 -0.021,-0.662 -0.041,-1.345 -0.041,-2.028 l -3.516,-0.204 c -3.259,1.136 -3.259,1.136 -3.365,1.23 m -13.044,15.539 c -1.145,1.458 -5.209,5.787 -5.209,7.563 2.183,1.029 4.15,-2.143 5.548,-3.824 3.301,-3.395 7.619,-5.45 11.855,-7.634 11.517,-5.605 11.517,-5.605 11.688,-5.742 -2.645,-3.577 -3.978,-4.468 -8.004,-5.032 -8.489,2.046 -10.925,7.494 -15.878,14.669 m 12.533,22.147 c 1.186,-0.642 3.41,-0.754 5.147,-1.596 -0.171,-0.389 -0.446,-1.296 -0.744,-1.619 -2.391,1.14 -4.698,2.805 -6.243,4.853 0.679,0.942 2.347,0.812 3.451,0.934 0,-0.043 0,-0.088 0.02,-0.157 1.378,0.298 1.693,0.885 2.772,-0.021 l -0.507,-0.756 c -1.566,0 -4.105,0.503 -5.147,-0.615 2.162,-0.021 3.921,-0.182 6.248,-0.683 -0.484,-1.595 -4.106,-0.088 -4.977,0.137 -0.02,-0.16 -0.02,-0.319 -0.02,-0.477 m 4.383,6.264 c 0.213,-0.501 2.183,-6.333 1.206,-5.288 -0.932,2.285 -2.285,3.399 -1.206,5.288 m -3.938,-3.03 c -0.045,0.066 -0.081,0.115 -0.106,0.162 0.847,0.797 1.358,1.094 2.437,1.596 0.147,-0.228 0.315,-0.457 0.487,-0.686 -0.401,-0.726 -2.118,-0.957 -2.818,-1.072 m -30.13,28.052 c -0.086,-0.162 -0.172,-0.325 -0.319,-0.393 -0.209,0.164 -0.421,0.299 -0.634,0.434 0.066,0.143 0.127,0.276 0.213,0.39 0.212,-0.024 0.405,-0.139 0.74,-0.431 m -0.021,1.887 c -0.126,-0.068 -0.233,-0.135 -0.339,-0.203 l -0.572,0.344 0,0.18 c 0.36,0.296 0.253,0.296 0.932,-0.092 -0.021,-0.068 -0.021,-0.135 -0.021,-0.229 M -51.3,16.882 c 0.04,0.089 0.101,0.181 0.167,0.249 0.273,-0.133 0.548,-0.297 0.826,-0.456 0,-0.225 -0.193,-0.387 -0.401,-0.387 -0.278,0.207 -0.552,0.501 -0.592,0.594 m 1.03,-2.338 c -0.104,-0.026 -0.217,-0.085 -0.295,-0.144 -0.428,0.458 -0.856,0.92 -1.284,1.348 0.511,0.549 1.342,-0.317 1.579,-1.204 m -0.863,3.386 c 0,0.135 0,0.135 0.212,0.615 0.315,-0.181 0.974,-0.319 0.912,-1.026 -0.086,-0.047 -0.172,-0.092 -0.237,-0.159 -0.294,0.206 -0.593,0.386 -0.887,0.57 m 2.649,-4.92 c -0.024,-0.252 -0.045,-0.503 -0.045,-0.753 -0.02,0 -0.045,-0.026 -0.065,-0.045 -0.72,0.409 -0.994,0.957 -1.333,1.184 l 0,-1.529 c 0.531,-0.157 1.145,0.071 1.08,-1.092 -0.062,-0.045 -0.124,-0.092 -0.189,-0.159 l -1.099,0.977 c -1.231,-4.283 -1.951,-9.273 -1.738,-13.899 0.969,0.73 0.969,0.615 2.265,0.393 0.339,2.461 0.572,5.098 1.333,7.22 0.633,-2.05 0.086,-4.741 -0.193,-7.065 -2.032,-0.477 -3.172,-1.094 -4.845,-1.752 -0.931,-2.008 -1.483,-2.987 -1.336,-5.853 0.233,-0.049 0.466,-0.116 0.699,-0.186 l 0,-0.276 c -0.932,-0.112 -1.08,-0.909 -1.374,-1.797 l -0.065,0 c -0.066,0 0.106,2.733 0.081,2.983 -2.032,4.785 2.482,11.666 3.41,16.176 0.086,1.462 0.765,5.812 1.779,6.425 0.531,-0.317 1.083,-0.636 1.635,-0.952 m -7.944,-29.35 0.568,0 c 0.385,1.938 0.769,3.168 1.591,4.833 0.511,-0.029 1.018,-0.049 1.55,-0.094 -0.299,-2.505 -0.299,-6.426 -3.284,-7.155 -2.179,0.392 -1.079,8.318 -0.699,9.025 0.209,-0.137 0.425,-0.296 0.658,-0.458 0,-1.934 -0.277,-3.988 -0.384,-6.151 m 0.193,7.907 c -0.086,-0.137 -0.213,-0.296 -0.32,-0.343 -1.038,0.366 -1.672,0.844 -2.346,1.345 0,0.117 0,0.229 0.02,0.345 0.973,-0.067 1.82,-0.228 2.646,-1.347 m -0.786,2.619 c -0.187,0.141 -0.359,0.276 -0.527,0.393 0,0.108 0,0.222 0.021,0.316 0.085,-0.049 0.572,-0.208 0.739,-0.568 -0.081,-0.047 -0.167,-0.094 -0.233,-0.141 m -3.704,-0.84 0.062,-0.39 c 0.11,0.091 0.212,0.159 0.319,0.228 0.997,-1.183 1.038,-3.804 -1.06,-3.804 -3.835,0.865 -2.498,3.486 0.679,3.966 m -3.029,0.249 c -1.419,0.366 -1.902,1.39 0.171,1.39 0.315,-0.59 0.847,-1.116 -0.171,-1.39 m 3.769,0.342 c 0.234,0.228 0.491,0.429 0.74,0.642 0.319,-0.213 0.446,-0.117 0.679,-0.8 -0.294,-0.229 -0.654,-0.251 -0.826,-0.298 -0.548,0.366 -0.548,0.366 -0.593,0.456 m 0.765,2.142 c 0.253,0.161 0.507,0.315 0.781,0.454 0.171,-0.319 0.171,-0.319 0.278,-0.726 -0.086,-0.117 -0.152,-0.251 -0.217,-0.39 l -0.082,0 c -0.233,0.047 -0.466,0.094 -0.695,0.114 l -0.065,0.548 z m 0.699,-4.559 c 0.208,-0.114 0.441,-0.227 0.679,-0.337 0,-0.049 -0.446,-3.582 -0.7,-3.306 -1.124,2.347 -1.083,1.413 0.021,3.643 m 9.399,2.76 c 0,-0.777 -1.717,-1.165 -2.285,-1.298 l -0.253,0.202 c 0.928,0.685 1.308,0.82 2.538,1.096 m -0.719,0.454 c -0.36,-0.088 -1.419,-0.479 -1.611,-0.407 -0.041,0.088 -0.086,0.182 -0.127,0.252 0.74,0.384 0.973,0.77 1.93,0.703 l -0.192,-0.548 z m 0.233,-2.327 c -0.446,-0.548 -1.272,-0.954 -1.864,-0.954 l -0.188,0.272 c 0.613,0.48 1.181,1.322 2.052,0.682 m -2.008,-1.843 c 0.164,-0.023 0.336,-0.09 0.695,-0.34 -0.044,0 -0.086,0 -0.106,-0.022 l -0.633,0.272 c 0,0.047 0.02,0.067 0.044,0.09 m 0.949,-1.804 c -0.106,-0.112 -0.193,-0.18 -0.319,-0.18 -0.233,0.164 -0.446,0.297 -0.654,0.434 l 0,0.366 c 0.441,0.317 0.613,-0.09 0.973,-0.62 m -0.613,-1.201 c -0.086,-0.07 -0.172,-0.14 -0.237,-0.209 -0.168,0.139 -0.315,0.276 -0.462,0.413 0,0.114 0,0.202 0.02,0.296 0.213,-0.161 0.442,-0.319 0.679,-0.5 m -0.871,-0.479 c 1.23,-0.53 0.658,-1.28 0.592,-1.21 -0.76,0.526 -1.013,0.595 -0.592,1.21 m 0.805,-2.666 c -0.041,-0.092 -0.086,-0.208 -0.126,-0.32 -0.213,0.046 -0.426,0.089 -0.614,0.112 -0.082,0.184 -0.151,0.343 -0.212,0.501 0.359,0.251 0.511,0.112 0.952,-0.293 m -1.038,5.581 c -0.041,0 -0.082,0 -0.127,-0.022 -0.127,0.09 -0.253,0.182 -0.36,0.251 0,0.364 0.127,0.364 0.254,0.613 -0.295,0.023 -0.593,0.047 -0.867,0.047 -0.724,2.368 -0.319,3.281 0.294,5.491 1.444,0.481 2.821,0.98 4.473,0.98 0.041,-0.045 0.082,-0.113 0.123,-0.182 -1.415,-2.298 -4.064,-0.366 -3.79,-4.033 -0.188,-1.051 -0.883,-1.281 0.11,-1.939 0.02,-0.388 0.168,-0.68 -0.11,-1.206 m -0.335,-0.637 0.061,-0.385 c -0.106,-0.096 -0.192,-0.184 -0.274,-0.298 -0.127,0.202 -0.233,0.406 -0.335,0.615 l 0.548,0.068 z m 1.103,-7.93 c 0,-0.117 0,-0.25 0.017,-0.386 -0.106,-0.095 -0.106,-0.095 -0.233,-0.095 -0.552,0.276 -0.724,0.616 -0.953,0.939 0.021,0.134 0.041,0.247 0.066,0.363 0.527,-0.116 0.527,-0.478 1.103,-0.821 m -0.155,-1.57 -0.061,-0.501 c -0.107,0.02 -0.213,0.02 -0.319,0.02 -0.613,0.088 -0.487,0.456 -0.634,0.73 0.401,0.546 0.401,0.342 1.014,-0.249 m -0.233,-2.325 c -0.695,0.43 -1.521,0.977 -1.521,1.636 0.552,0 1.627,-0.659 1.521,-1.636 m -0.507,-1.367 c -0.208,0.02 -0.421,0.02 -0.633,0.02 -0.148,0.162 -0.295,0.319 -0.426,0.478 0.107,0.187 0.303,0.409 0.466,0.524 0.319,-0.293 0.532,-0.317 0.593,-1.022 m -16.174,3.847 c -0.086,0 -0.172,0 -0.258,-0.02 -3.491,0.615 -4.865,7.29 -3.066,9.818 2.919,2.919 4.616,-7.269 3.324,-9.798 m -3.091,11.577 c -0.107,0.229 -0.213,0.452 -0.319,0.662 0.106,0.155 0.233,0.296 0.36,0.434 0.041,-0.117 0.294,-1.462 -0.041,-1.096 m -0.703,-0.934 c -0.143,0.365 -0.295,0.705 -0.422,1.048 0.279,0.252 0.279,0.252 0.361,0.252 0.277,-0.297 0.294,-1.55 0.061,-1.3 m 13.234,-17.978 c -0.249,-0.752 -0.695,-4.009 -1.586,-4.009 -4.236,1.208 -8.406,3.921 -11.857,6.379 0.826,1.252 1.632,2.301 2.605,3.395 0.952,0 9.313,-3.941 10.838,-5.765 m -15.307,2.096 c 3.365,-1.779 6.799,-4.124 10.418,-6.127 -0.087,-0.824 -0.336,-1.689 -0.655,-2.576 -0.061,0 -0.131,0 -0.171,-0.022 -3.938,1.705 -7.58,3.283 -10.99,5.56 0,1.272 0.825,2.278 1.398,3.165 m -2.331,-2.46 c -1.565,1.438 -2.326,2.073 -3.152,3.804 0.659,0.98 0.445,1.779 0.912,2.712 1.398,-0.914 2.518,-1.709 3.872,-3.028 0,-0.777 -1.607,-3.488 -1.632,-3.488 m 4.682,-5.307 c 2.265,1.207 9.399,-2.644 12.494,-3.646 1.354,-0.548 0.994,-0.867 0.336,-2.233 l -0.123,0 c -2.502,0.887 -11.289,2.822 -12.707,5.879 m 7.772,-5.587 c 0,-0.568 -0.491,-2.777 -1.312,-2.777 -3.03,0.798 -6.035,2.485 -8.517,4.056 0,0.816 0.36,2.007 0.703,2.577 3.132,-1.071 5.904,-2.212 9.126,-3.856 m 15.287,-7.087 c -0.086,0 -0.151,-0.018 -0.213,-0.041 -4.889,0.91 -9.931,2.118 -14.526,3.533 0.045,1 0.233,1.864 0.511,2.708 2.093,0 5.544,-1.5 7.772,-2.113 2.879,-0.368 8.275,0.838 6.456,-4.087 m -8.451,6.135 c -0.294,0.635 -0.102,1.729 -0.061,2.185 4.975,0 10.012,-1.275 15.246,-1.414 0.38,-0.046 0.74,-0.046 1.226,-0.387 0,-0.662 0,-1.343 0.025,-2.027 -0.49,-0.088 -0.977,-0.205 -1.464,-0.32 -4.914,0.364 -10.458,0.25 -14.972,1.963 m 8.431,5.192 c 0.02,-0.73 0.106,-1.567 0.02,-2.549 -0.065,0.02 -0.127,0.02 -0.188,0.02 -5.148,0.319 -9.469,1.366 -14.359,2.642 0.127,1.118 0.339,1.78 0.679,2.645 4.615,-1.164 9.105,-1.846 13.848,-2.758 m -9.911,2.691 c 0,1.385 0.613,3.027 1.271,4.145 4.044,-0.159 8.509,-0.57 12.683,-1.163 0.552,-0.294 0.106,-4.876 0.066,-4.83 -4.596,0.482 -9.911,0.296 -14.02,1.848 m 23.121,-3.537 c 0.106,-0.638 0.126,-1.408 0.045,-2.161 -0.994,0.025 -1.972,0.025 -2.944,0.025 -2.69,0 -7.221,-0.413 -9.486,0.386 l 0.062,2.596 c 3.242,0 9.424,0.569 12.323,-0.846 m 11.074,-5.239 c -3.664,-1.117 -10.396,-1.455 -14.08,-1.455 -1.671,0.546 -1.165,1.663 -1.124,3.165 4.109,0.481 8.406,0.25 12.664,0.117 l 0,0.959 c -2.16,0 -7.41,-1.28 -7.41,1.887 0.466,0.318 1.059,0.115 1.733,0.045 -0.146,-0.249 -0.293,-0.501 -0.421,-0.778 0.107,-0.154 0.233,-0.316 0.36,-0.498 0.466,0 0.932,0 1.398,-0.022 l -0.126,1.253 c -0.258,0.045 -0.491,0.092 -0.72,0.115 5.145,0.817 4.507,0.343 7.726,-4.788 m -5.612,6.86 -1.686,0.363 c -0.407,1.221 -1.23,2.986 -0.599,3.033 0.26,0.019 2.224,-2.327 2.481,-3.143 -0.069,-0.071 -0.131,-0.161 -0.196,-0.253 m -12.854,4.24 c 3.115,0 6.185,0.364 9.403,-0.458 0.025,-1.117 0.045,-2.252 0.086,-3.394 -0.552,-0.089 -1.1,-0.206 -1.631,-0.32 -2.772,0.185 -5.504,0.114 -8.132,0.433 0,1.184 -0.123,3.032 0.274,3.739 m 3.792,19.215 0,0.155 c 0.804,0.42 0.804,0.293 1.909,-0.474 l 0,-0.164 -0.356,-0.285 c -0.863,0.162 -1.168,0.417 -1.553,0.768 m 0.294,-1.156 c 0.525,-0.161 1.05,-0.344 1.608,-0.534 -0.032,-0.22 -0.032,-0.477 -0.032,-0.725 -0.142,0.028 -0.288,0.028 -0.435,0.028 -0.786,0.13 -1.373,0.661 -1.141,1.231 m -0.328,2.598 c 0.696,0 0.927,0.172 1.723,-0.434 -0.172,-0.144 -0.299,-0.284 -0.434,-0.418 -0.657,0.274 -1.091,0.562 -1.289,0.852 m -0.037,0.913 -0.306,0.658 c 0.641,0.197 1.149,-0.185 1.944,-0.577 l 0,-0.41 c -0.079,0 -0.158,-0.029 -0.233,-0.054 -0.483,0.136 -0.941,0.276 -1.405,0.383 m -0.437,1.809 c -0.032,0.204 -0.032,0.375 -0.032,0.547 0.599,0.101 1.01,-0.241 1.614,-0.786 -0.189,-0.135 -0.348,-0.306 -0.513,-0.477 -0.372,0.239 -0.722,0.477 -1.069,0.716 m -0.221,1.312 c 0,0.206 0,0.408 0.032,0.579 0.595,-0.171 1.19,-0.344 1.806,-0.519 -0.324,-0.292 -0.868,-0.35 -1.075,-0.381 -0.277,0.117 -0.518,0.237 -0.763,0.321 m -0.157,1.557 c -0.257,0.867 0.973,0.158 1.313,0.023 0,-0.09 0.02,-0.524 -0.151,-0.436 -0.401,0.135 -0.781,0.274 -1.162,0.413 m -0.178,1.503 c 0.368,0.143 0.976,0.657 1.584,0.174 l 0,-0.317 -0.399,-0.254 c -0.5,0.026 -1.007,0.113 -1.185,0.397 m -0.025,1.778 c 0.357,0 0.708,-0.026 1.069,-0.05 0.086,-0.171 0.176,-0.332 0.267,-0.526 -0.112,-0.096 -0.224,-0.219 -0.335,-0.337 l -0.735,0.146 c -0.086,0.262 -0.176,0.524 -0.266,0.767 m -0.64,0.948 0,0.416 c 0.542,-0.125 1.088,-0.259 1.658,-0.416 -0.238,-0.261 -0.302,-0.357 -0.541,-0.357 -0.389,0.128 -0.75,0.256 -1.117,0.357 m -0.555,1.857 c 0.072,0.107 0.139,0.219 0.205,0.295 0.484,-0.371 0.96,-0.775 1.443,-1.182 -0.105,-0.106 -0.204,-0.221 -0.278,-0.371 l -0.165,0 c -0.894,0.371 -0.894,0.778 -1.205,1.258 m 1.29,0.298 c -0.392,0.286 -0.784,0.587 -1.146,0.847 l 0.999,0.193 0.574,-0.52 c 0,-0.36 -0.275,-0.491 -0.427,-0.52 m -1.532,1.778 c 0,0.415 0.111,0.351 0.223,0.588 0.495,-0.237 0.99,-0.474 1.484,-0.74 -0.303,-0.324 -0.632,-0.234 -0.936,-0.268 -0.271,0.149 -0.521,0.298 -0.771,0.42 m -0.268,1.181 c -0.039,0.168 -0.078,0.332 -0.078,0.465 0.436,0 0.908,0 1.382,-0.046 0.083,-0.164 0.159,-0.336 0.236,-0.553 -0.077,0 -0.153,0 -0.236,-0.041 -0.435,0.087 -0.87,0.129 -1.304,0.175 m -0.429,1.36 c 0.574,0.196 1.016,0.35 1.704,-0.116 -0.253,-0.276 -0.4,-0.312 -0.618,-0.357 l -1.086,0.473 z m -0.122,1.498 c 0.449,0.479 1.02,-0.031 1.652,-0.476 -0.099,-0.101 -0.19,-0.206 -0.283,-0.344 -0.288,0.034 -0.57,0.034 -0.828,0.034 -0.197,0.276 -0.381,0.549 -0.541,0.786 m 1.041,4.568 c 0.674,-0.934 1.586,-4.376 2.519,-4.943 0.273,-2.986 2.306,-5.45 3.156,-8.547 -0.679,-0.384 -1.97,-1.594 -2.417,-1.684 -0.698,0.752 -3.07,13.374 -3.258,15.174 m 6.076,-18.181 c 0,-0.777 -0.74,-1.076 -1.317,-1.527 0,-0.706 -0.102,-1.529 -0.294,-2.374 -0.062,0 -0.106,-0.02 -0.147,-0.043 -0.066,0.023 -0.131,0.043 -0.172,0.07 -0.062,1.085 -0.83,4.001 -0.192,4.69 0.784,-0.134 1.25,-0.248 2.122,-0.816 m -1.865,1.776 c -0.024,0.182 -0.041,0.364 -0.041,0.524 1.525,-0.137 2.453,-1.004 3.79,-2.141 -0.086,-0.092 -0.171,-0.186 -0.299,-0.186 -1.165,0.613 -2.305,1.208 -3.45,1.803 m 0.368,-10.743 c -0.052,-0.143 -0.328,-0.349 -0.488,-0.411 -1.05,0.148 -0.916,0.411 -1.348,1.134 0.78,-0.06 0.973,-0.026 1.836,-0.723 m -0.625,-1.04 c 0.192,-0.155 0.405,-0.319 0.617,-0.478 -0.086,-0.137 -0.168,-0.272 -0.253,-0.432 l -0.807,0 c -0.147,0.18 -0.272,0.364 -0.4,0.525 0.274,0.136 0.552,0.277 0.843,0.385 m 0.936,-1.887 c 0,-0.141 -0.319,-0.758 -0.425,-0.709 -0.659,0.276 -0.781,0.568 -1.059,0.934 0.617,0.092 0.74,0.162 1.484,-0.225 m 0.273,-1.414 c -0.02,-0.045 -0.04,-0.09 -0.065,-0.16 l -0.143,0 c -0.319,0.09 -0.637,0.18 -0.956,0.249 0.384,0.25 0.658,0.367 1.164,-0.089 m 0.087,-1.276 c -0.046,-0.182 -0.172,-0.662 -0.295,-0.595 -0.364,0.141 -0.724,0.249 -1.062,0.366 -0.021,0.139 -0.021,0.274 -0.021,0.413 0.274,0.296 0.998,0.364 1.378,-0.184 m -1.251,-1.002 c 0.171,0 0.319,0.068 0.678,-0.231 l 0,-0.114 c -0.171,-0.115 -0.335,-0.156 -0.466,-0.156 -0.086,0.023 -0.168,0.041 -0.234,0.041 0,0.162 0,0.325 0.022,0.46 m 3.662,-1.505 c -0.232,-0.341 -4.215,-2.87 -4.255,-2.847 -0.32,0.525 -0.638,1.047 -0.933,1.548 1.526,0.911 3.39,2.669 5.188,1.299 m -5.188,-2.234 c 0.021,-0.161 0.046,-0.317 0.087,-0.48 -0.467,-0.636 -0.467,-0.636 -0.507,-0.613 -0.254,0.138 -0.512,0.249 -0.765,0.363 0.086,0.982 0.233,0.935 1.185,0.73 m 3.222,-0.909 c 0.593,-0.8 0.867,-1.3 1.312,-2.484 -1.418,-0.433 -2.563,-0.526 -3.921,-0.546 -1.205,0.045 -2.325,0.2 -3.299,0.431 l 0.062,9.864 c -0.193,3.876 -2.519,27.207 -1.501,28.303 0.233,-0.526 1.48,0.045 1.713,-0.732 -0.061,-0.092 -0.126,-0.18 -0.192,-0.296 -0.699,0.363 -0.928,0.296 -1.541,0.296 0.38,-4.101 1.84,-7.721 2.114,-12.143 0.126,-1.094 0.699,-1.505 0.466,-3.007 0.106,-0.162 0.233,-0.317 0.36,-0.481 -1.08,-4.076 4.382,-12.233 1.058,-16.519 -0.552,-0.452 -1.099,-0.91 -1.627,-1.364 0,-0.682 0,-1.368 0.016,-2.052 2.756,-1.024 2.31,0.364 4.98,0.73 m -6.506,41.678 c -0.074,0.071 -0.498,-0.112 -0.562,-0.147 -0.206,0.077 -0.797,0.356 -0.959,0.427 0.162,0.179 0.716,0.486 1.521,-0.28 m -0.841,1.204 c -0.139,0.074 -0.658,0.264 -0.658,0.407 0.466,0.411 0.339,0.458 0.953,-0.088 -0.062,-0.114 -0.209,-0.296 -0.295,-0.319 M -51.476,1.222 c 0.434,0.468 1.268,0.128 1.786,-0.434 -0.084,-0.122 -0.145,-0.278 -0.2,-0.434 l -0.724,0 c -0.284,0.248 -0.573,0.465 -0.862,0.682 l 0,0.186 z m 1.536,-2.156 c 0,-0.032 0,-0.061 0.029,-0.096 -0.151,-0.098 -0.295,-0.223 -0.417,-0.356 l -1.262,0.776 c -0.029,0.26 -0.029,0.26 0.064,0.42 0.51,-0.229 1.048,-0.487 1.586,-0.744 m 0.119,2.299 c -0.911,0.481 -1.439,0.955 -0.887,1.685 0.208,-0.135 1.861,-1.002 0.887,-1.685 m -1.55,3.034 c 0.508,0.548 1.384,-0.215 2.062,-0.764 -0.032,-0.111 -0.065,-0.218 -0.065,-0.356 -0.137,0 -0.274,-0.042 -0.404,-0.075 -0.882,0.18 -1.188,0.794 -1.593,1.195 m 0.98,1.838 c 0.408,-0.431 2.146,-2.599 0.863,-1.914 -0.278,0.198 -2.009,1.914 -0.863,1.914 m 0.774,-0.263 c -0.529,0.815 -0.505,0.879 -0.444,1.561 0.414,-0.268 0.973,-0.782 0.973,-1.631 -0.182,0.034 -0.37,0.07 -0.529,0.07 m -0.645,2.365 c 0.122,0.145 0.258,0.291 0.394,0.397 0.4,-0.29 0.8,-0.574 1.233,-0.9 0,-0.075 -0.194,-0.504 -0.297,-0.533 -0.465,0.355 -0.904,0.713 -1.33,1.036 m 0.139,1.561 c 0.091,0.204 0.189,0.378 0.317,0.543 0.409,-0.201 0.824,-0.403 1.264,-0.607 0.03,-0.168 -0.128,-1.026 -0.196,-0.983 -0.476,0.372 -0.946,0.708 -1.385,1.047 m 1.893,-1.725 c 0.331,-0.667 0.506,-1.681 0,-2.232 -0.025,0.026 -0.045,0.047 -0.045,0.069 -0.037,0.145 -0.609,2.163 0.045,2.163 m 1.333,-3.414 c 0.932,-0.139 1.778,-0.231 2.858,-0.705 -0.021,-0.164 -0.021,-0.323 -0.021,-0.481 -0.552,-0.045 -1.1,-0.112 -1.631,-0.18 -0.446,0.045 -0.888,0.088 -1.333,0.115 -0.385,0.728 -0.151,0.748 0.127,1.251 m 3.025,-2.733 c 0.172,-7.294 0.785,-14.719 0.528,-22.13 -0.103,-0.222 -0.209,-0.451 -0.295,-0.68 -0.928,-0.317 -2.093,-0.158 -2.964,-0.205 -0.487,0.135 -0.953,0.27 -1.419,0.385 0.233,7.656 0.487,15.313 0.74,22.969 1.255,0.045 1.95,0.092 3.41,-0.339 m 1.567,14.042 c -0.036,-0.209 -0.071,-0.409 -0.071,-0.618 -0.108,0 -0.224,0 -0.338,-0.022 -0.436,0.231 -0.88,0.456 -1.295,0.682 0.115,0.117 0.221,0.229 0.372,0.344 0.806,0 1.141,-0.317 1.332,-0.386 m 0.206,-1.699 c -0.15,-0.173 -0.78,-0.261 -1.028,-0.261 -0.096,0.139 -0.605,0.239 -0.672,0.342 0.187,0.13 1.058,0.404 1.404,0.404 l 0.296,-0.485 z m -1.302,-1.296 c 0.126,0.067 0.253,0.137 0.396,0.182 0.257,-0.227 0.531,-0.454 0.805,-0.703 -0.102,-0.092 -0.208,-0.207 -0.315,-0.323 -0.551,0.069 -1.038,0.323 -0.886,0.844 m 1.543,-1.684 c -0.04,-0.27 -0.589,-0.503 -0.679,-0.503 -0.293,0.18 -0.589,0.367 -0.85,0.503 0.131,0.224 0.261,0.408 0.425,0.593 0.343,-0.185 0.728,-0.369 1.104,-0.593 m -6.123,-34.747 c -0.4,0.362 -0.376,0.386 -0.335,0.658 0.993,0.297 4.743,1.186 5.017,-0.366 -1.546,-0.041 -3.365,-0.292 -4.682,-0.292 m -1.549,38.737 c 0.157,0 0.748,-0.558 1.063,-0.827 0,-0.223 0,-0.44 0.027,-0.688 -0.071,0.029 -0.141,0.029 -0.185,0.029 -0.406,0 -0.883,1.411 -0.905,1.486 m 0.07,1.243 c 0.363,0.389 0.472,0.146 1.133,-0.169 l 0.132,-1.048 c -0.044,0 -0.066,-0.026 -0.088,-0.052 -1.108,1.124 -1.108,1.124 -1.177,1.269 m 1.632,0.733 c -0.091,0 -0.184,0 -0.276,-0.024 -0.363,0.341 -0.722,0.682 -1.063,1.022 0,0.586 1.234,-0.095 1.339,-0.998 m -1.167,4.833 -0.127,0 c -0.04,0.023 -0.085,0.047 -0.106,0.047 0.066,0.182 0.131,0.364 0.213,0.546 0.298,-0.024 0.253,-0.247 0.02,-0.593 m 0.213,-2.148 c 0.092,0.072 0.18,0.142 0.297,0.214 0.29,-0.289 0.495,-0.558 1.064,-0.851 -0.07,-0.123 -0.136,-0.243 -0.184,-0.363 l -0.157,0 c -0.587,0.433 -0.77,0.63 -1.02,1 m 0.233,1.513 0.593,0 c 0.278,-0.344 0.866,-0.683 0.4,-1.19 -0.76,0.411 -0.74,0.64 -0.993,1.19 m 1.925,3.142 c 0.512,0.184 0.72,0.319 1.444,0.274 0.887,-4.081 1.562,-14.378 0.523,-19.597 -0.462,0 -0.908,0 -1.353,-0.02 -0.319,0.137 -0.634,0.27 -0.953,0.386 -1.034,5.585 0.021,13.351 0.339,18.957 m 2.458,-3.897 c 0.233,-0.251 0.785,-1.05 0.208,-1.343 -0.187,0.616 -0.503,1.024 -0.208,1.343 m 0.518,0.275 c 0.313,-0.16 0.661,-0.317 1.008,-0.474 -0.028,-0.154 -0.028,-0.314 -0.028,-0.499 -0.111,0 -0.23,0 -0.319,-0.028 -0.331,0.07 -1.071,0.564 -0.661,1.001 m 1.963,-1.861 c -0.154,-0.136 -0.272,-0.301 -0.402,-0.467 -0.397,0.266 -0.762,0.5 -1.13,0.725 0.402,0.201 1.348,0.322 1.532,-0.258 m 1.026,-1.446 c -0.271,-0.209 -0.271,-0.209 -0.65,-0.314 -1.058,0.28 -2.279,0.403 -0.924,0.884 0.642,-0.245 1.041,-0.367 1.574,-0.57 m 0.201,-0.954 c -0.237,-0.207 -0.47,-0.478 -0.683,-0.478 -0.568,0.134 -0.654,0.339 -0.846,0.615 0.634,0.18 0.912,0.521 1.529,-0.137 m 0.505,-1.353 c -0.029,-0.063 -0.029,-0.155 -0.029,-0.253 l -0.89,-0.287 c -1.31,0.221 -1.195,0.514 -0.419,1.12 0.391,-0.195 0.597,-0.416 1.338,-0.58 m 0.583,-1.613 c 0.079,-0.11 -0.392,-0.104 -0.557,-0.104 -0.624,0.089 -1.227,0.687 -1.441,0.399 0.591,0.795 1.466,0.451 1.998,-0.295 m 0.572,-0.953 c -0.027,-0.207 -0.059,-0.447 -0.059,-0.684 -0.132,0 -0.271,0 -0.41,-0.03 -0.799,0.12 -0.999,-0.068 -1.382,0.281 0.159,0.33 0.358,0.626 0.549,0.925 0.41,-0.326 0.86,-0.161 1.302,-0.492 m 0.419,-1.635 0,-0.247 c -0.327,-0.361 -0.764,-0.254 -1.163,-0.21 l -0.399,0.859 c 0.464,0.174 1.028,-0.077 1.562,-0.402 m 0.606,-1.636 -1.662,0.031 -0.224,0.236 c 0.843,0.503 0.98,0.561 1.886,-0.267 m 0.531,-0.989 C -37.466,8.394 -38.18,8.394 -38.337,8.394 l -0.837,0.407 c 0.024,0.168 0.059,0.301 0.09,0.439 0.59,-0.205 1.21,-0.406 1.842,-0.605 m 0.28,-1.329 c -0.06,-0.067 -0.127,-0.17 -0.188,-0.271 l -0.28,0 c -0.256,0.171 -0.507,0.344 -0.73,0.512 0.249,0.408 0.852,0.545 1.198,-0.241 m 0.67,-1.408 -0.253,-0.207 c -0.614,0.072 -0.781,0.231 -1.034,0.503 0.143,0.184 0.38,0.615 0.613,0.615 0.147,-0.157 0.527,-0.431 0.674,-0.911 m 0.721,-1.09 c -0.097,-0.104 -0.196,-0.24 -0.256,-0.378 l -0.219,0 c -0.505,0.204 -0.974,0.378 -1.448,0.542 0.377,0.407 1.23,0.168 1.923,-0.164 m 0.572,-0.959 c 0,-0.084 0,-0.17 0.03,-0.254 -0.152,-0.165 -0.314,-0.393 -0.547,-0.393 -0.635,0.084 -0.923,0.109 -1.081,0.477 0.503,0.17 0.868,0.512 1.598,0.17 m 0.207,-1.472 c -0.259,-0.068 -0.509,-0.138 -0.761,-0.239 -0.417,0.272 -0.957,0.508 -0.828,0.821 0.919,0 0.999,0.175 1.589,-0.582 m 0.572,-0.849 0.089,-0.305 -1.737,0 c 0,0.105 0.036,0.207 0.065,0.267 0.527,0.038 1.054,0.038 1.583,0.038 m 0.738,-1.384 C -33.526,0 -33.526,0 -34.064,-0.243 c -0.321,0.187 -0.635,0.387 -0.903,0.535 0.173,0.139 0.355,0.282 0.538,0.382 0.313,-0.143 0.625,-0.348 0.947,-0.53 m 3.757,-11.245 c -0.315,-0.139 -0.638,-0.271 -0.932,-0.435 -1.971,0.481 -2.352,0.642 -3.39,2.441 0.254,0.595 0.511,1.184 0.785,1.76 0.127,0.021 0.274,0.021 0.421,0.021 -0.041,-1.732 -0.568,-2.098 1.19,-2.85 0.041,0.55 -0.294,0.801 -0.446,0.954 0.107,0.73 0.593,1.252 0.928,1.779 -0.866,0.662 -1.12,1.141 -1.966,1.617 -0.892,-0.043 -2.727,-0.775 -3.279,-0.476 -0.025,0.137 -0.025,0.274 -0.025,0.388 1.354,1.094 2.351,0.953 4.089,1.069 -0.867,2.12 -2.776,2.527 -4.49,3.42 -0.02,0.113 -0.02,0.113 0.082,0.362 5.169,-1.388 6.521,-4.303 7.033,-10.05 m -6.182,3.876 c 0.147,0 0.254,-0.071 0.527,-0.227 -0.466,-0.506 -0.719,-1.048 -1.059,-1.664 -0.061,0 -0.127,0 -0.192,-0.024 l -0.127,0 c 0.213,0.75 0.491,1.345 0.851,1.915 m 1.819,0.387 c 0.021,0 0.041,0 0.086,-0.022 0,-0.733 -0.381,-1.916 -1.058,-2.37 -0.107,0.09 -0.214,0.184 -0.3,0.272 l 1.272,2.12 z m 4.7,-5.334 c -0.868,-0.682 -1.544,-0.979 -2.263,-1.363 0.482,-0.82 0.972,-1.662 1.48,-2.511 -0.085,-0.112 -0.168,-0.222 -0.233,-0.364 -1.693,0.046 -2.437,-0.292 -3.704,-0.478 0,-0.611 -1.207,-1.388 -1.738,-1.549 0,3.056 -0.847,5.746 -1.292,8.5 1.631,1.756 4.276,-1.619 5.528,-2.895 0.784,0.341 1.292,0.501 2.222,0.66 m 0.998,-12.21 -0.193,0 c -2.606,0.523 -2.921,1.664 -4.36,3.739 l -2.265,0.067 c -0.025,0.041 -0.041,0.07 -0.066,0.09 3.516,1.615 1.358,-0.413 4.15,-0.231 -0.38,0.507 -0.76,0.982 -1.12,1.462 -1.1,-0.092 -2.204,-0.184 -3.283,-0.296 -0.106,0.112 -0.212,0.204 -0.319,0.296 1.611,0.499 2.183,0.777 4.17,0.777 l 0.7,-0.892 c 0.232,0.023 0.486,0.023 0.739,0.023 -1.668,1.596 -1.774,1.57 -3.704,1.823 l 0,0.227 c 0.597,0.481 2.352,0.252 3.324,0.252 1.376,-2.78 2.672,-3.874 2.227,-7.337 m 12.236,-10.755 c -0.065,0.023 -0.102,0.023 -0.146,0.023 -1.799,0.617 -2.67,1.253 -3.983,2.322 4.129,2.528 3.708,3.305 4.702,-1.022 -0.609,-0.434 -0.573,-0.554 -0.573,-1.323 m 3.197,-1.57 -0.167,0 c -1.145,0.386 -1.824,0.818 -2.564,1.413 0,1.523 4.809,1.453 2.731,-1.413 m -8.741,4.578 c -2.101,1.229 -3.18,2.162 -4.722,3.787 1.795,0.816 3.512,0.589 5.503,0.519 0.274,-0.454 1.693,-2.731 1.46,-3.487 -0.634,-0.184 -1.819,-0.819 -2.241,-0.819 m -6.271,5.106 c -0.254,0.229 -0.736,0.354 -0.719,0.679 0.073,1.453 3.384,0.35 5.013,0.139 -1.734,-0.315 -4.102,-0.818 -4.294,-0.818 m 3.177,4.352 0.06,0 c 0.131,-0.595 -0.188,-0.867 -0.588,-1.439 l -0.192,0.343 c 0.229,0.366 0.466,0.728 0.72,1.096 m -1.547,-1.643 c -0.044,0 -0.064,0 -0.081,-0.021 -0.572,0.84 0.168,1.456 0.548,2.028 0.127,-0.074 0.274,-0.139 0.425,-0.227 0,-0.137 -0.744,-1.441 -0.892,-1.78 m -1.164,-0.546 -0.127,0 c -0.082,0.067 -0.172,0.114 -0.253,0.159 0,0.799 0.445,1.525 0.678,2.212 0.082,-0.074 0.168,-0.141 0.274,-0.209 -0.041,-0.797 -0.212,-1.433 -0.572,-2.162 m -2.181,10.256 c 2.266,1.114 2.434,-0.55 4.257,-2.76 0,-0.732 -1.504,-4.489 -1.672,-4.397 -0.784,0.57 -0.404,0.958 -0.192,1.504 -0.825,1.597 -2.393,3.964 -2.393,5.653 m 6.948,2.89 c 0.441,-0.296 0.908,-0.593 1.374,-0.909 0,0 -1.399,-9.594 -2.792,-8.842 -0.913,0.979 3.552,8.159 1.839,9.248 -1.272,-1.137 -2.138,-6.879 -3.222,-9.115 -0.335,0 -0.249,0.094 -0.314,0.162 0.511,2.414 1.165,8.066 3.115,9.456 m 1.922,-1.093 c 0.527,-2.253 0.347,-5.201 0.445,-7.517 -0.548,-0.229 -1.075,-0.458 -1.61,-0.71 l -0.27,0.231 c 0.187,2.184 0.081,6.307 1.435,7.996 m -1.399,2.165 c 0,1.825 0.871,2.847 2.629,2.757 0.765,-0.981 0.908,-1.756 1.059,-3.326 -0.274,-0.141 -0.548,-0.276 -0.801,-0.411 -1.53,0.16 -1.909,0.202 -2.887,0.98 m 2.629,-1.869 c 1.566,-0.843 1.288,-4.238 0.339,-5.853 l -0.081,0 c -0.532,1.454 -0.426,4.144 -0.511,5.577 l 0.253,0.276 z m 1.885,1.752 c 1.627,0 0.294,-2.371 -0.045,-3.165 l -0.253,0 c -0.082,0.023 -0.168,0.045 -0.254,0.045 -0.147,1.619 -0.061,1.844 0.552,3.12 m 3.745,-2.958 c -0.38,-3.692 -3.512,-11.076 -7.641,-11.691 -0.846,0.114 -1.673,0.226 -2.499,0.319 0,3.669 3.811,2.939 5.868,5.967 0.78,2.326 1.373,4.626 2.392,6.701 0.886,0 1.12,-0.48 1.88,-1.296 m 1.869,-13.106 c -1.844,-1.363 -4.024,-3.255 -6.227,-3.622 -0.38,1.095 -0.826,2.326 -1.084,3.238 1.758,1.139 7.311,6.173 7.311,0.384 m 3.364,0.824 c 0.209,-0.912 0.573,-1.824 0.38,-3.034 -1.206,-0.817 -5.102,-4.233 -6.013,-4.417 -0.594,1.091 -0.994,2.05 -1.419,3.005 0.977,0.615 6.586,4.784 7.052,4.446 m -2.837,-9.908 c -2.371,2.998 0.127,3.46 2.67,5.124 0.188,0 0.376,-0.413 0.568,-0.754 0.381,-3.187 -0.867,-3.169 -3.238,-4.37 m 3.026,0.132 -0.061,-2.374 c -0.087,0.029 -0.152,0.029 -0.214,0.029 -1.247,0.068 -2.011,0.268 -3.025,0.614 -0.168,0.536 2.796,1.839 3.3,1.731 m -19.311,-11.507 c 1.337,0.909 2.731,0.548 4.428,0.909 1.525,0.594 2.965,1.734 4.551,0.706 -2.433,-1.797 -4.023,-3.798 -7.028,-3.798 -1.251,0.472 -1.46,1.181 -1.951,2.183 m -3.746,1.664 c 0.024,0.91 0.06,1.826 0.106,2.733 1.966,1.208 4.172,0.979 6.543,1.092 0.148,0.298 0.315,0.597 0.487,0.869 0.167,0 2.858,-2.733 3.368,-3.235 -3.601,-1.23 -5.805,-1.982 -9.299,-2.121 -0.401,0.229 -0.805,0.458 -1.205,0.662 m -30.726,-0.755 c 0.233,0.665 0.49,1.324 0.744,1.961 4.489,-0.386 8.7,-1.936 13.341,-2.439 0.016,1.482 0.147,2.991 0.359,4.33 3.006,-0.088 14.139,0.979 15.03,-0.934 0.192,-0.818 0.405,-1.731 0.425,-2.731 -1.819,-1.848 -3.05,-3.762 -5.486,-4.193 -0.618,0.402 -3.562,2.529 -2.666,3.302 l 2.666,-0.338 c 0.298,-0.958 -0.082,-1.875 0.388,-2.739 0.63,0.572 0.654,1.823 0.781,2.623 0.887,0.134 1.627,0.202 2.751,0.116 -0.045,0.317 -0.085,0.636 -0.106,0.954 -4.722,0.571 -9.673,2.007 -13.827,-0.39 -6.796,-5.873 -4.956,0.638 -10.966,1.482 -1.144,-0.381 -2.396,-1.004 -3.434,-1.004 m -9.801,2.716 c 0.275,1.228 0.549,2.027 1.039,3.007 2.686,-0.93 5.716,-1.799 8.341,-3.533 0.041,-0.685 0.106,-2.19 -0.425,-2.754 -2.519,1.022 -6.734,3.28 -8.955,3.28 m -4.975,1.98 c 1.124,0 2.817,-1.526 3.917,-2.277 -0.446,-0.595 -1.885,-1.321 -2.478,-1.529 -1.505,1.006 -1.333,2.142 -1.439,3.806 m -0.957,5.06 c 0.511,0 5.189,-2.619 5.912,-3.395 -0.192,-0.502 -1.272,-2.576 -1.337,-2.552 -1.946,1.503 -5.969,3.144 -4.575,5.947 m -1.059,4.806 c 0.086,0.092 0.172,0.162 0.253,0.229 1.444,-1.345 2.503,-2.098 4.388,-3.075 -0.213,-0.777 -0.426,-1.551 -0.634,-2.348 -0.045,0 -0.066,0 -0.086,-0.021 -2.862,1.523 -3.81,2.024 -3.921,5.215 m -0.715,5.017 c 1.627,-1.464 6.689,-3.853 7.494,-5.585 -0.634,-0.798 -0.675,-0.912 -1.48,-1.027 -1.778,0.842 -7.834,4.355 -6.014,6.612 m 0.356,25.265 c -0.021,-1.914 -0.021,-1.914 -0.062,-1.891 -0.826,0.501 -1.713,1.21 -1.713,2.14 0.867,0.456 0.548,0.413 1.775,-0.249 m 2.583,1.277 c -1.537,0.706 0.556,2.179 1.018,1.934 -0.188,-0.613 -0.507,-1.39 -1.018,-1.934 m 3.243,0.27 c -0.274,-2.344 -1.292,-4.053 -2.396,-6.265 l 0.486,-0.068 c 0.192,-0.819 2.523,-9.363 1.95,-10.595 -1.267,0.546 -1.966,1.3 -3.066,1.392 0,-2.846 4.657,-3.259 5.61,-5.313 -0.655,-0.887 -1.526,-2.525 -2.523,-2.869 -7.049,3.783 -6.374,4.465 -5.311,11.8 0.695,0.575 1.034,0.548 2.032,0.71 0.274,-0.546 0.552,-1.092 0.846,-1.664 0.02,0 0.045,0 0.086,-0.021 0.634,0.681 -0.405,1.981 -0.617,2.504 -3.112,0.344 -4.698,1.938 -7.049,3.717 -0.02,0.135 -0.045,0.249 -0.045,0.364 l -1.905,0.339 c 0,0.184 0,0.346 0.024,0.501 1.141,-0.317 2.307,-0.634 3.471,-0.955 0,-0.114 0.021,-0.229 0.041,-0.364 0.405,-0.091 2.077,-0.776 2.65,-0.64 -2.502,3.239 -8.705,3.852 -6.546,8.525 0.805,0.364 0.699,-0.959 1.104,-1.619 0.355,0.388 0.736,0.771 1.12,1.139 0.213,-0.115 0.425,-0.252 0.634,-0.385 0.02,-0.345 0.045,-0.684 0.086,-1.026 -0.127,-0.072 -0.253,-0.139 -0.38,-0.233 l 0,-0.454 c 1.525,0 1.504,1.368 2.118,-1.026 0.633,-1.185 1.844,-1.864 3.111,-2.686 0.572,0.204 -0.295,3.941 -0.401,4.327 -0.638,0.319 -1.272,0.618 -1.885,0.914 0,0.297 0.405,0.569 0.573,0.773 1.332,-0.409 2.179,-1.956 3.385,-3.189 1.206,0.339 1.738,1.458 2.523,2.463 0.081,-0.026 0.167,-0.047 0.274,-0.096 m 0.212,-10.681 -0.151,0 c -0.127,0.067 -0.254,0.133 -0.36,0.2 0.041,0.571 0.257,0.887 0.531,1.3 l 0.34,0 c 0,-0.498 0.02,-0.932 -0.36,-1.5 m 0.781,4.238 c 0,-0.344 -0.74,-2.234 -1.14,-1.803 -1.039,1.116 -0.639,4.125 0.339,5.174 0.527,-0.685 2.346,-2.646 0.801,-3.371 m -1.14,20.479 c 0.465,0.503 1.606,2.032 2.158,2.214 0.106,-0.096 0.213,-0.182 0.319,-0.296 -0.257,-0.254 -2.012,-2.145 -2.224,-2.145 -0.086,0.092 -0.172,0.162 -0.253,0.227 m 1.165,3.032 c -0.552,-1.139 -1.018,-1.936 -2.184,-2.482 0,1.002 1.039,2.756 2.184,2.482 m 2.473,1.756 c -1.079,0.272 -1.713,4.307 -1.881,5.174 0.082,0.108 0.168,0.223 0.254,0.317 1.014,-0.824 1.905,-4.238 1.627,-5.491 m -0.589,-9.504 c -0.49,0.113 -0.956,0.227 -1.422,0.323 -0.507,1.069 -1.121,2.435 -1.121,3.396 0.041,0.038 2.225,2.068 2.225,1.183 -0.933,-0.914 -1.358,-2.373 -0.385,-3.784 0.192,0.137 0.385,0.274 0.597,0.389 -0.065,1.435 0.209,2.324 0.507,3.53 0,1.642 -1.439,2.711 -1.95,3.989 0.106,0.085 0.213,0.157 0.319,0.23 0.908,-0.325 2.616,-2.829 2.817,-2.829 0.085,0.115 0.167,0.227 0.274,0.321 -0.699,2.48 -1.12,4.602 -1.399,6.879 l 0.254,0.342 0.106,0 c 1.905,-3.69 1.889,-10.434 -0.822,-13.969 m 6.665,-16.722 -0.254,-1.711 c -0.928,0.478 -1.84,0.954 -2.752,1.415 -0.02,-0.023 0.34,-0.904 0.36,-1.027 0.871,-1.482 4.767,-3.146 6.587,-2.436 0.446,-0.319 0.806,-0.939 1.272,-1.597 0.126,0.117 0.273,0.204 0.421,0.299 0.867,-1.188 0.086,-9.163 1.696,-12.624 0.36,0 0.822,0.205 1.248,0.342 -0.912,4.217 -1.419,3.892 1.59,5.765 0.887,-0.8 -0.233,-4.33 -0.511,-5.765 0.127,-0.046 0.192,-0.046 0.253,-0.319 0.107,0 0.237,0 0.36,-0.023 0.147,0.272 0.319,0.548 0.49,0.799 0.148,-0.028 0.148,-0.028 0.953,-0.48 l 0.062,-1.095 c 0.977,0.641 1.251,7.152 1.124,8.09 -0.405,0.18 -0.805,0.36 -1.186,0.524 0.021,0.27 0.062,0.525 0.106,0.776 0.401,0 0.655,-0.437 1.014,-0.983 0.127,0.043 0.275,0.093 0.426,0.117 0.867,2.502 0.4,5.924 0.826,8.404 0.781,0.846 1.1,1.394 1.52,2.373 0.025,0 0.045,-0.024 0.087,-0.049 -0.573,-6.468 -0.761,-13.169 -1.06,-19.773 l 1.039,0 0.319,2.117 c 1.439,0 2.923,-0.021 4.51,-0.272 l 0.065,-2.574 c -0.11,0.018 -0.212,0.018 -0.319,0.018 -6.967,0.346 -15.246,0.777 -21.113,4.835 0,3.529 2.265,6.74 1.549,10.682 -0.237,0.02 -0.466,0.02 -0.682,0.02 -0.336,-1.954 -1.01,-8.77 -1.775,-10.156 -0.294,0.068 -0.572,0.135 -0.846,0.202 -0.258,2.942 0.147,5.927 -0.344,8.57 -1.86,3.874 -3.745,7.836 -5.351,11.573 -0.319,2.437 -0.299,4.787 -0.233,7.067 0.613,0.317 0.654,0.566 1.48,0.384 0.253,-0.499 0.547,-0.977 0.826,-1.756 0.891,-6.241 1.205,-7.586 6.243,-11.732 m 1.676,16.816 c -4.808,-3.42 -4.808,-3.279 -3.451,-8.956 1.693,-1.913 2.073,-1.848 1.46,-4.714 -0.658,-0.206 -1.251,-0.503 -1.779,-0.619 -0.359,0.274 -0.699,0.547 -1.038,0.822 -0.168,1.755 -0.887,2.984 -1.521,4.399 -0.086,0.02 -0.151,0.043 -0.217,0.043 -0.077,1.641 -0.208,3.056 -0.421,4.444 1.566,1.504 5.867,4.121 5.483,6.378 0.638,0.685 1.819,-0.681 1.484,-1.797 m 5.037,-10.939 c -0.72,-0.728 -1.84,-1.754 -2.939,-1.457 -0.892,0.615 -0.892,0.615 -0.978,0.615 0.634,-1.118 1.844,-2.776 -0.36,-3.142 -1.713,0.499 -1.038,2.96 -1.651,4.078 -5.696,8.5 0.531,12.507 6.227,5.99 -0.446,-0.981 -2.499,-1.278 -2.752,-1.709 0.487,-0.319 0.973,-0.656 1.46,-1.001 0,-0.199 -1.264,-1.836 -1.46,-2.078 1.251,-0.597 0.564,1.086 2.011,0.618 -0.841,-1.654 0.442,-0.949 0.442,-1.914 m 0.617,-3.326 c -0.212,0.297 -0.425,0.595 -0.637,0.863 0.58,1.466 1.19,-1.055 0.637,-0.863 m 0.25,2.803 c 0.298,-0.067 0.49,-0.067 0.785,-0.615 -0.082,-0.113 -0.168,-0.252 -0.25,-0.387 l -0.277,0 c -0.148,0.158 -0.295,0.295 -0.422,0.429 0.041,0.209 0.102,0.393 0.164,0.573 m 0.449,1.597 c 0.168,-0.115 1.121,-0.64 0.72,-1.28 -0.597,0.458 -0.997,0.662 -0.72,1.28 m 0.148,1.41 c 0.441,-0.159 0.695,-0.341 1.1,-1.006 -0.066,-0.086 -0.168,-0.2 -0.254,-0.2 -0.425,0.411 -0.994,0.818 -0.846,1.206 m 0.732,1.721 c 0.35,-0.134 0.506,-0.134 0.682,-0.892 -0.278,-0.41 -0.278,-0.41 -0.332,-0.388 -0.224,0.193 -0.448,0.356 -0.677,0.524 0,0.622 0.024,0.429 0.327,0.756 m 0.18,1.329 1.118,-0.803 c 0,-0.03 -0.024,-0.43 -0.1,-0.349 -0.447,0.185 -0.869,0.375 -1.292,0.564 -0.024,0.106 -0.024,0.214 -0.024,0.32 0.101,0.103 0.197,0.189 0.298,0.268 m 0.976,0.138 -0.956,1.193 c 0.848,1.537 1.171,-1.423 0.956,-1.193 m -0.498,2.948 c 0.225,0.04 0.475,0.074 0.731,0.074 0.122,-0.134 1.262,-1.122 0.377,-1.597 -0.981,0.609 -0.822,0.85 -1.108,1.523 m 0.564,0.823 c 0.087,0.213 0.173,0.424 0.287,0.605 0.249,0 1.227,-0.727 0.697,-1.294 -0.335,0.237 -0.675,0.481 -0.984,0.689 m 1.293,0.442 c -0.373,0.311 -0.745,0.586 -1.124,0.87 1.469,1.917 1.964,-0.595 1.124,-0.87 m -0.242,3.102 c 0.172,-0.022 0.335,-0.047 0.531,-0.088 0.106,-0.23 0,-1.232 -0.257,-0.958 -0.254,0.364 -0.442,0.613 -0.487,0.775 0.07,0.087 0.131,0.183 0.213,0.271 m 0.532,1.773 c 0.285,-0.357 0.929,-0.94 0.929,-1.691 -0.1,0 -0.18,-0.03 -0.26,-0.055 -0.539,0.137 -0.878,0.584 -1.158,0.863 0.125,0.305 0.255,0.611 0.385,0.883 l 0.104,0 z m 0.337,1.143 c 0.264,-0.126 0.523,-0.286 0.787,-0.444 0,-0.121 0,-0.25 0.028,-0.371 -0.057,0.031 -0.118,0.031 -0.174,0.031 -0.731,0.408 -0.731,0.408 -0.843,0.562 0.056,0.096 0.112,0.161 0.202,0.222 m -0.043,6.584 c 0.192,-0.204 0.38,-0.407 0.572,-0.638 -0.045,-0.269 -0.066,-0.546 -0.086,-0.842 -0.106,0 -0.208,0 -0.294,-0.022 -0.617,0 -0.425,1.003 -0.446,1.277 0.082,0.09 0.168,0.16 0.254,0.225 m 1.144,0.025 c -0.531,0.48 -0.596,0.593 -0.719,1.069 0.041,0.069 0.102,0.139 0.168,0.204 0.212,-0.02 0.425,-0.065 0.658,-0.108 0,-0.229 0.02,-1.231 -0.107,-1.165 m 0.299,-1.505 c 0.295,0.642 0.335,0.526 0.948,-0.043 0,-0.116 0,-0.116 -0.188,-0.433 l -0.102,0 c -0.237,0.157 -0.45,0.317 -0.658,0.476 m 0.589,3.036 c -0.192,0.292 -0.36,0.589 -0.528,0.885 0.507,1.392 0.994,-0.638 0.528,-0.885 m 0.764,-2.055 c -0.212,-0.139 -0.212,-0.139 -0.233,-0.09 -0.507,0.636 -0.405,0.548 -0.172,1.137 0.127,0 0.467,-0.638 0.405,-1.047 m -0.127,4.332 c 0.066,-0.184 0.189,-0.433 0.254,-0.826 -0.065,-0.02 -0.11,-0.041 -0.151,-0.086 -0.381,0.405 -0.209,0.659 -0.103,0.912 m -2.923,2.709 c 0.802,1.071 2.838,1.821 3.811,0.253 -3.39,-0.275 -3.39,-0.275 -3.811,-0.253 m -7.388,-0.503 c 0.654,0.411 4.572,1.23 5.058,0.431 -1.693,-0.36 -3.279,-0.681 -4.845,-0.817 -0.086,0.136 -0.151,0.273 -0.213,0.386 m -0.552,1.826 c 0.528,0.748 4.191,1.228 5.315,1.341 l 0.613,-0.661 c -1.904,-0.887 -3.875,-0.842 -5.715,-0.955 -0.086,0.093 -0.147,0.185 -0.213,0.275 m 6.096,2.804 c -0.081,-0.163 -0.168,-0.325 -0.253,-0.509 l -1.505,-0.065 c -0.037,-0.068 -0.061,-0.135 -0.082,-0.203 -0.993,0.342 -1.717,-0.527 -2.645,-0.527 -1.377,0.074 -1.377,0.074 -1.591,0.141 0.442,1.135 4.85,1.981 6.076,1.163 m 0.785,-0.756 c 0.466,-0.317 0.933,-0.636 1.419,-0.979 l 0,-0.503 c -0.486,-0.364 -0.953,-0.728 -1.419,-1.116 l -0.319,0.206 c -0.02,0.752 -0.253,1.985 0.319,2.392 m 4.763,0.728 c -0.466,-0.338 -2.052,-1.252 -2.158,-1.202 -0.765,0.429 -1.525,0.864 -2.261,1.271 0.376,0.411 3.573,0.141 4.419,0.141 l 0,-0.21 z m 1.464,-0.546 c 0,-0.34 -0.065,-2.163 -0.384,-1.822 -0.487,0.207 -0.973,0.387 -1.46,0.57 -0.02,0.162 -0.041,0.32 -0.041,0.454 0.507,0.366 1.014,0.73 1.521,1.076 0.106,-0.096 0.233,-0.184 0.364,-0.278 m 2.56,3.076 c -0.442,-0.182 -0.888,-0.366 -1.313,-0.548 -2.31,0.413 -2.564,2.989 -0.613,3.852 0,0.773 0,1.551 0.02,2.326 -1.059,0 -2.118,0 -3.177,-0.024 -1.186,-2.962 -6.414,1.825 -1.353,2.891 0.953,-0.405 1.018,-0.201 1.46,-1.362 1.018,0 2.032,0 3.07,-0.023 -0.02,0.906 -0.04,1.82 -0.04,2.732 -4.49,1.798 4.427,6.564 2.137,0.23 l -0.572,-0.275 c -0.025,-0.89 -0.025,-1.781 -0.025,-2.687 0.852,0.023 1.722,0.023 2.589,0.023 0.507,1.641 1.766,1.427 3.071,0.865 1.186,-3.214 -1.865,-4.465 -2.965,-2.394 -0.911,0.024 -1.803,0.024 -2.695,0.024 0,-0.795 0,-1.621 0.025,-2.438 1.313,-0.548 0.761,-2.098 0.381,-3.192 m -0.569,-3.144 c 0.082,-0.135 0.163,-0.296 0.25,-0.453 -0.168,-0.185 -0.401,-0.434 -0.569,-0.434 -1.717,0.137 -1.058,0.981 0.319,0.887 m 0.147,-2.551 -1.271,-0.341 c -0.086,0.134 -0.147,0.251 -0.213,0.364 0.168,0.091 1.759,0.864 1.484,-0.023 m -0.511,3.553 c -0.273,0.116 -0.527,0.207 -0.785,0.298 -0.237,1.556 1.947,0.323 0.785,-0.298 m 1.906,-4.943 c 0,-0.456 -0.021,-0.571 -0.34,-1.069 -1.414,0 -2.813,0 -4.211,-0.027 -0.147,0.593 -0.086,0.64 0.086,1.028 1.034,0.092 3.492,0.593 4.465,0.068 m 0,-2.416 c -0.189,0.047 -0.36,0.069 -0.527,0.092 0.065,0.159 0.126,0.296 0.212,0.431 0.213,-0.09 0.486,-0.613 0.315,-0.523 m 0.723,-1.467 c -0.714,0.267 -1.162,0.6 -1.05,1.012 0.301,0.088 0.523,-0.034 1.01,-0.27 -0.275,-0.381 0.119,-0.742 0.04,-0.742 m 0.766,-0.805 c -0.067,0 -0.1,-0.037 -0.141,-0.078 -0.383,0.158 -0.725,0.299 -1.076,0.414 0.069,0.111 0.135,0.225 0.209,0.299 0.309,-0.111 0.658,-0.225 1.008,-0.377 l 0,-0.258 z m 0.775,-0.836 c -0.027,-0.091 -0.054,-0.185 -0.054,-0.302 -0.33,-0.029 -0.629,-0.059 -0.938,-0.12 l -0.994,0.712 c 0,0.649 1.837,-0.2 1.986,-0.29 m 0.848,-1.258 -0.1,-0.207 c -0.583,0 -1.166,0 -1.719,-0.031 l -0.231,0.238 c 0.752,0.385 0.878,0.454 2.05,0 m 0.453,-0.948 c -0.239,-0.223 -0.564,-0.477 -0.799,-0.477 -0.211,0.129 -0.411,0.254 -0.588,0.351 0.12,0.223 0.234,0.443 0.377,0.637 0.211,0 0.565,-0.22 1.01,-0.511 m 0.863,-1.154 c -0.319,-0.229 -0.511,-0.436 -0.847,-0.436 -0.339,0 -0.445,0.436 -0.466,0.503 0.487,0.25 0.594,0.478 1.272,0.296 0,-0.114 0.02,-0.228 0.041,-0.363 m 1.058,-1.143 c -1.144,-0.638 -1.144,-0.638 -1.251,-0.638 -0.486,0.413 -0.4,0.413 -0.126,0.779 0.445,0 0.892,-0.027 1.337,-0.049 0,-0.021 0.021,-0.045 0.04,-0.092 m 0.625,-1.245 c -0.508,-0.197 -1.331,-0.601 -1.589,-0.601 -0.106,0.204 -0.186,0.404 -0.257,0.565 0.709,0.24 1.039,0.48 1.846,0.036 m 0.761,-1.095 c -0.028,-0.153 -0.047,-0.337 -0.047,-0.518 -0.51,-0.025 -1.016,-0.081 -1.494,-0.128 -0.121,0.156 -0.241,0.284 -0.363,0.414 0.506,0.541 1.059,0.494 1.904,0.232 m 0.747,-1.76 -1.701,0 0.083,0.463 c 0.519,0.034 1.066,0.064 1.618,0.064 l 0,-0.527 z m 0.591,-0.532 c -0.27,-0.193 -0.27,-0.193 -1.187,-0.523 -0.211,0.133 -0.423,0.262 -0.641,0.362 0.488,0.161 1.006,0.197 1.828,0.161 m 0.134,-1.994 c -0.339,0.18 -0.678,0.362 -0.993,0.548 0,2.721 2.441,-1.304 0.993,-0.548 m 1.325,-0.292 c 0,-0.13 -0.186,-1.101 -0.394,-1.006 -0.51,0.195 -0.783,0.456 -0.963,0.618 0.094,0.159 0.905,0.553 1.357,0.388 m 1.057,-2.175 c -0.298,0.029 -0.594,0.029 -0.871,0.029 -0.208,0.172 -0.401,0.318 -0.589,0.466 0.762,0.459 0.569,0.606 1.403,-0.059 0,-0.147 0.026,-0.295 0.057,-0.436 m 0.688,-0.892 c -0.363,-0.075 -0.719,-0.178 -1.045,-0.282 -0.357,0.144 -0.682,0.251 -1.002,0.351 0.063,0.175 0.157,0.354 0.251,0.488 0.751,0.069 0.882,0.1 1.796,-0.557 m -0.914,-1.641 -0.585,0.614 c 1.779,1.032 2.482,0.208 0.585,-0.614 m 1.888,0.269 c 0,-0.837 -1.169,-0.632 -0.748,-0.573 -0.134,0.033 -0.635,-0.137 -0.75,-0.097 l 0.817,0.765 c 0.282,0 0.367,-0.064 0.681,-0.095 m 0.86,-1.51 c -0.413,-0.209 -0.413,-0.209 -0.633,-0.209 -1.055,0.344 -1.055,0.344 -1.116,0.444 0.282,0.298 2.023,0.758 1.749,-0.235 m 0.708,-0.801 c -1.386,-0.405 -1.386,-0.405 -1.683,-0.405 -0.091,0.094 -0.176,0.188 -0.267,0.251 0.502,0.154 1.214,0.635 1.921,0.51 0,-0.102 0,-0.222 0.029,-0.356 m 0.945,-1.688 c -0.949,0.139 -1.429,0.345 -1.872,0.689 2.008,0.51 1.903,-0.719 1.872,-0.689 M -29.48,0.859 c -0.076,0.077 -0.149,0.155 -0.196,0.233 0.733,0.264 0.832,0.398 1.784,-0.024 -0.392,-0.421 -1.198,-0.209 -1.588,-0.209 m 0.938,-3.118 c 1.231,0 2.351,0.797 3.709,0.07 -0.209,-1.29 0.457,-2.519 0.081,-3.987 -0.552,0 -0.928,0.431 -1.185,0.638 l 0,0.161 c 0.425,0.362 0.445,0.385 1.104,0.428 -0.087,0.184 -0.168,0.366 -0.254,0.527 -0.83,0.16 -1.758,0.319 -2.331,-0.022 0.974,-0.959 2.2,-3.216 3.173,-4.696 0.32,0.024 0.638,0.024 0.956,0.024 l -0.636,0.616 0.89,0.955 c 0.086,-0.021 0.233,-0.086 0.466,-0.34 -0.637,-1.551 -0.085,-1.87 -1.565,-2.849 -0.086,-0.822 -0.618,-6.082 -1.378,-5.262 -1.504,1.913 -2.585,4.192 -4.447,1.866 l -0.232,0.251 c 0.592,0.479 1.183,0.959 1.801,1.413 -0.233,0.206 -0.467,0.384 -0.679,0.566 l 0.572,0.413 c -0.761,3.279 -0.975,5.902 -2.966,8.316 -0.618,0.458 -3.217,2.304 -3.365,2.623 0.421,0 1.231,-0.366 1.865,-0.366 -1.272,4.874 -4.723,9.594 -5.508,13.875 2.584,-1.961 4.363,-8.723 7.367,-10.663 -0.02,-0.157 -0.041,-0.317 -0.041,-0.499 1.207,-0.73 1.526,-2.529 2.603,-4.058 m 4.068,-4.943 c -0.127,0.116 -0.258,0.229 -0.359,0.342 0.101,0.363 0.147,0.32 0.568,0.181 0,-0.137 0.02,-0.274 0.045,-0.407 -0.193,-0.096 -0.107,-0.116 -0.254,-0.116 m -2.542,5.74 c -0.336,-0.067 -0.675,-0.161 -0.994,-0.251 -0.087,0.116 -0.172,0.231 -0.253,0.321 0.232,0.159 0.461,0.319 0.719,0.458 0.167,-0.16 0.339,-0.346 0.528,-0.528 m 3.875,6.885 c 5.634,-0.709 5.569,-1.711 5.381,-7.682 -0.319,-2.778 -1.971,-4.238 -4.363,-4.647 l -1.292,0.205 c -0.02,0.411 -0.02,0.799 -0.02,1.183 0.335,0.164 0.674,0.319 1.014,0.46 0,1.023 -0.891,0.759 -0.891,1.088 0.891,0.959 2.203,-0.818 1.909,1.096 l -2.056,0 c 0,1.104 0.572,0.828 0.444,1.641 -1.058,0.067 -2.097,0.117 -3.135,0.16 0,2.892 1.484,4.258 3.009,6.496 m 10.438,-2.144 c -0.908,-1.319 -1.905,-7.631 -4.404,-7.631 l -0.06,0 c 0,7.199 1.374,9.544 -5.696,10.505 -0.192,0.292 -0.319,0.589 -0.319,0.722 2.838,1.827 11.583,0.709 14.715,-0.364 -1.48,-1.047 -2.882,-2.093 -4.236,-3.232 m 5.148,-4.692 c -0.041,0 -0.087,0 -0.127,-0.024 -0.466,0.613 -0.744,1.138 -0.952,1.619 0.02,0.02 0.041,0.02 0.061,0.02 0.171,-0.202 1.226,-1.026 1.018,-1.615 m 2.518,-3.624 0,0.568 c -0.254,0.139 -0.486,0.276 -0.719,0.391 l 0,0.271 c 0.298,0.091 0.548,-0.047 0.973,-0.296 -0.188,-1.664 -0.806,-1.799 -2.057,-2.347 -0.082,0.045 -0.163,0.088 -0.254,0.115 1.37,3.211 0.418,0.415 2.057,1.298 M 0.278,-1.3 c 0.339,-4.445 -5.34,-5.469 -7.118,-8.936 0.809,0 5.066,2.095 5.299,1.846 -2.056,-1.664 -4.768,-4.28 -7.306,-4.624 -0.319,0.344 -0.638,0.663 -0.953,0.979 -0.679,-0.476 -2.285,-5.807 -2.285,-6.807 l 0.694,0.065 c 0.447,1.57 0.912,3.122 1.378,4.671 0.528,-0.071 1.079,-0.136 1.632,-0.229 0.401,-2.913 -0.086,-6.813 -0.274,-10.026 -0.405,-0.34 -2.33,-1.959 -2.694,-1.775 -0.446,0.795 -0.888,1.592 -1.312,2.392 0.956,0.865 1.994,1.866 2.902,2.845 -1.251,1.348 -5.802,-4.19 -7.073,-2.821 1.652,3.827 4.62,12.734 7.265,16.289 -0.405,2.232 -3.451,4.694 -2.817,5.924 1.1,-0.59 3.259,-2.663 4.424,-2.596 0.596,1.251 0.998,2.3 2.183,2.937 0.209,-0.114 0.421,-0.226 0.654,-0.363 l 0.131,-1.141 c -1.95,-1.003 -2.543,-2.279 -3.095,-4.644 2.437,-1.575 4.129,4.076 4.448,4.076 0.34,-0.297 0.401,-0.409 1.035,-0.252 0.278,1.096 -0.442,1.325 0.278,2.098 l 0.679,-0.137 c 0,-0.317 0,-0.66 0.016,-1.002 0.658,0.456 0.936,0.705 1.378,1.458 0.171,-0.07 0.339,-0.137 0.531,-0.227 M -9.947,-5.015 c 0.188,0 0.38,0 0.568,-0.022 -0.106,1.047 -1.946,2.531 -2.58,2.531 0.634,-0.775 1.354,-1.529 2.012,-2.509 m 0.421,-18.617 c -0.127,0.207 -0.233,0.411 -0.339,0.617 -0.932,-0.134 -0.994,-0.134 -1.354,-1.068 0.103,-0.162 0.234,-0.344 0.36,-0.528 0.38,0 1.079,0.548 1.333,0.979 m -13.889,27.459 0,-0.616 c 1.693,0.021 3.386,0.046 5.082,0.046 -1.995,1.412 -3.07,1.001 -5.082,0.57 m -0.106,-1.711 c -0.021,-0.205 -0.045,-0.411 -0.045,-0.614 0.916,0.066 1.145,0.669 1.697,-0.341 -0.209,-0.184 -0.426,-0.364 -0.639,-0.572 0.087,-0.158 0.173,-0.338 0.259,-0.522 0.719,0 1.435,-0.026 2.179,-0.049 l 0,0.503 -0.512,0.068 c -0.359,0.597 -0.122,0.776 0.021,1.21 0.257,0.02 0.532,0.047 0.809,0.047 l 0,0.499 c -1.93,0.455 -2.097,0.341 -3.769,-0.229 m 1.48,-2.368 c -0.147,-0.206 -0.254,-0.323 -0.254,-0.707 0.806,0.025 1.611,0.045 2.437,0.045 -0.744,0.227 -1.464,0.456 -2.183,0.662 m -3.684,-2.054 c -0.167,-0.272 -0.335,-0.546 -0.486,-0.838 l -1.419,0.067 -0.127,-0.278 0.446,-0.405 c 0.76,0.044 1.525,0.07 2.31,0.087 l -0.577,1.367 -0.147,0 z m -18.907,38.189 c -1.395,2.78 -3.836,-0.272 -1.231,-1.206 0.81,0.272 0.866,0.339 1.231,1.206 m 0,9.479 c -0.761,1.413 -1.759,1.458 -2.433,0 0.335,-0.732 0.233,-0.705 1.202,-1.071 0.683,0.184 0.912,0.366 1.231,1.071 m 2.711,-4.808 c 0.314,-0.705 0.253,-0.865 1.206,-1.204 2.752,0.724 -0.087,4.146 -1.206,1.204 m -8.304,-0.135 c 0,2.848 -4.277,0.182 -1.121,-1.069 0.638,0.065 0.867,0.568 1.121,1.069 M -60.193,4.076 c -0.36,0.182 -0.532,0.068 -0.703,0.068 -0.148,0.41 -0.295,0.799 -0.422,1.183 -1.104,0.393 -2.158,-0.955 -2.158,-2.07 0.188,0.183 0.38,0.365 0.572,0.523 0.168,-0.137 0.339,-0.297 0.507,-0.456 0,-0.207 -0.319,-0.524 -0.487,-0.754 0.189,-0.088 0.401,-0.178 0.614,-0.293 0.887,0.501 1.374,0.955 2.077,1.799 m -4.874,0.135 c 0.871,0 2.502,1.619 3.537,2.167 -0.127,0.227 -0.254,0.431 -0.36,0.64 -1.501,0.18 -2.645,-1.574 -3.177,-2.807 M -64.94,-1.3 c -2.159,3.232 -2.392,3.53 -2.473,7.063 -2.711,-2.12 1.034,-6.947 1.86,-9.841 0,-0.025 0,-0.048 0.02,-0.074 0.638,0.278 0.593,2.394 0.593,2.852 m 2.396,-11.099 c -0.998,-1.435 -0.998,-6.126 -0.998,-7.907 0.021,0 0.045,0 0.086,-0.018 0,-1.415 -0.805,-1.893 0.826,-2.691 0.045,0 0.106,0 0.172,-0.024 0.335,3.371 0.801,6.993 0.506,10.232 -0.212,0.137 -0.404,0.271 -0.592,0.408 m 1.332,0.048 c 0.045,-3.645 -0.106,-7.566 0.316,-11.369 0.253,0.02 0.531,0.041 0.805,0.041 -0.233,3.786 -0.462,7.566 -0.679,11.328 l -0.442,0 z m 0.847,0.179 c 0,-3.919 0.74,-7.97 1.292,-12.006 0.192,-0.088 0.401,-0.204 0.613,-0.317 0.045,0 0.082,0 0.127,-0.022 -0.315,4.211 -0.613,8.494 -1.607,12.435 -0.151,-0.02 -0.299,-0.041 -0.425,-0.09 m -15.9,7.223 c 0.866,0.959 1.713,1.756 1.459,3.007 -0.826,-0.431 -1.206,-2 -1.48,-2.934 0,-0.026 0,-0.049 0.021,-0.073 m -3.369,3.191 c -0.875,0.233 -0.115,0.75 -1.1,-0.045 0.147,-0.18 0.319,-0.362 0.487,-0.546 0.126,0 0.486,0.456 0.613,0.591 m 9.211,-39.919 c 0,-0.635 0.147,-0.911 0.552,-1.617 0.192,0.137 0.401,0.25 0.613,0.366 -0.065,1.456 -0.233,1.615 -1.165,1.251 m 23.951,-1.526 c -0.237,-0.271 -0.47,-0.571 -0.703,-0.867 0.253,-0.225 0.511,-0.479 0.784,-0.728 0.127,0 0.127,0 1.059,0.431 0.086,0.322 -0.126,0.797 -0.126,0.824 l -1.014,0.34 z m 16.322,-0.636 c 0,-0.501 0.445,-0.777 1.04,-0.935 0.274,0.043 0.548,0.066 0.825,0.088 0.062,0.319 0.042,0.641 0.042,0.732 -0.74,0.364 -1.356,0.48 -1.907,0.115 m 19.925,9.411 c 0.192,0.748 0.024,0.731 -0.315,1.162 -0.826,-0.046 -0.957,-0.685 -1.231,-0.685 0.237,-0.253 0.467,-0.526 0.7,-0.797 0.274,0.11 0.551,0.224 0.846,0.32 m -2.478,2.732 c 0.466,0.999 0.36,0.796 -0.106,1.478 l -0.973,0 c -0.172,-0.268 -0.319,-0.565 -0.466,-0.863 0.188,-0.229 0.38,-0.48 0.592,-0.73 0.319,0.047 0.638,0.092 0.953,0.115 m -4.002,2.845 c 0.106,0.325 0.216,0.616 0.318,0.912 -0.805,1.233 -0.699,0.55 -1.884,-0.18 0.192,-0.223 0.38,-0.48 0.572,-0.732 l 0.994,0 z m -4.49,20.052 c -0.805,-1.296 -0.883,-1.147 0.233,-2.379 0.38,0.047 0.785,-0.033 1.186,-0.012 0.466,0.752 0.679,1.163 0.613,2.05 -0.948,0.481 -1.12,0.433 -2.032,0.341 m 1.93,-0.523 c -0.086,-0.705 -0.168,-1.002 -0.593,-1.617 l -1.206,0.084 c -1.083,1.934 0.147,2.261 1.799,1.533 m -0.319,-0.157 -1.272,0.339 -0.441,-0.752 c 0.38,-0.272 0.781,-0.546 1.186,-0.842 l 0.127,0 c 0.359,0.57 0.4,0.707 0.4,1.255 m -1.185,0.135 c 0.36,-0.068 0.724,-0.164 1.079,-0.25 0,-0.298 -0.102,-0.548 -0.339,-0.914 l -0.103,0 -0.953,0.683 0.316,0.481 z m -21.32,-21.259 c -0.131,-0.297 -0.257,-0.615 -0.364,-0.934 0.319,-0.227 0.658,-0.478 0.997,-0.73 0.274,0 0.827,0.319 1.206,0.456 0,0.366 -0.613,1.096 -0.633,1.143 l -1.206,0.065 z m 4.084,-8.884 c -0.319,-0.094 -0.637,-0.209 -0.932,-0.323 -0.066,-0.27 -0.106,-0.544 -0.151,-0.84 0.217,-0.207 0.425,-0.434 0.659,-0.663 1.443,0.182 0.891,1.118 0.424,1.826 m -7.408,3.917 c -0.552,0.024 -1.084,0.045 -1.611,0.045 -0.066,-0.299 -0.066,-0.499 -0.066,-0.96 l 0.761,-0.202 c 0.805,0 1.083,0.413 0.916,1.117 m -11.902,6.313 c 0,-0.775 0.065,-0.866 0.72,-1.508 0.274,0 0.825,0.575 1.1,0.798 0,1.801 -1.207,0.916 -1.82,0.71 m -3.897,-3.576 -1.21,0 c 0.046,-0.981 0.046,-0.981 0.107,-1.211 0.212,-0.087 0.212,-0.087 0.785,-0.16 0.977,0 0.486,0.938 0.318,1.371 m 4.956,-5.497 -0.127,-0.477 c 0.106,-0.159 0.233,-0.32 0.36,-0.496 0.36,0 0.715,-0.027 1.079,-0.049 -0.041,0.705 -0.065,0.754 -0.318,1.163 l -0.994,-0.141 z m -6.014,-3.506 c 0.274,0.027 0.274,0.027 1.374,0.364 l -1.056,1.21 c -0.339,0 -0.47,-0.209 -0.723,-0.319 l 0,-0.961 c 0.131,-0.088 0.253,-0.184 0.405,-0.294 m -9.571,5.351 c -0.573,0.254 -0.593,0.115 -1.018,-0.02 -0.042,-0.637 0.192,-0.911 0.596,-1.615 0.973,0.338 0.634,0.681 0.422,1.635 m 0.973,3.079 c 0,-0.523 0.192,-0.754 0.552,-1.342 0.192,0.11 0.4,0.224 0.613,0.32 0,1.137 -0.303,1.395 -1.165,1.022 m -3.598,6.315 c 0.065,-0.779 0.151,-0.893 0.76,-1.69 0.192,0.114 0.405,0.227 0.613,0.323 0,1.48 -0.208,1.817 -1.373,1.367 m 4.849,2.278 c 0.78,0.999 0.76,0.838 0.253,1.664 -0.278,0.02 -0.531,0.02 -0.785,0.02 -0.421,-0.981 -0.486,-0.73 0.107,-1.684 l 0.425,0 z m 8.42,17.201 c 0.367,-0.168 0.53,-0.657 0.239,-1.528 -0.167,-0.07 -0.319,-0.137 -0.466,-0.223 -0.998,0.106 -1.186,0.681 -1.059,1.478 0.305,0.204 0.611,0.319 0.879,0.338 -0.265,0.013 -0.574,-0.021 -0.94,-0.133 -0.295,-0.979 -0.021,-1.683 1.034,-1.846 1.161,0.308 1.295,1.593 0.313,1.914 m -0.407,0.065 c 0.15,-0.007 0.289,-0.026 0.407,-0.065 -0.118,0.054 -0.255,0.076 -0.407,0.065 m 46.656,-36.656 c 2.225,0.411 4.723,1.891 6.567,3.485 -3.774,1.231 -7.033,2.823 -10.463,4.418 -2.179,1.755 -6.496,4.831 -9.125,4.831 1.525,-4.919 8.643,-11.483 13.021,-12.734 m -10.777,10.641 c -0.486,0.593 -1.226,1.183 -1.374,1.502 2.053,0 5.917,-3.108 7.365,-4.025 1.027,-0.649 1.255,-0.803 2.523,-1.418 2.755,-0.751 5.15,-3.049 8.251,-3.259 -1.339,0.091 -4.542,-2.365 -5.834,-2.365 -1.463,0.162 -4.998,1.725 -5.255,2.68 -2.049,2.758 -5.021,3.283 -5.676,6.885 m -44.804,-13.673 c -3.197,-0.411 -6.329,-1.275 -9.081,-2.803 0,-0.183 0.234,-0.409 0.421,-0.685 1.779,0.367 6.33,2.163 7.981,1.824 1.529,-1.732 2.666,-2.757 4.661,-4.19 4.044,-1.44 5.634,2.824 8.467,2.824 6.121,-6.586 5.696,-3.649 13.027,-0.572 0.081,0.026 5.311,-3.847 7.874,-4.078 2.858,0.204 4.595,2.78 7.408,2.78 5.698,-2.417 6.544,-2.071 11.774,1.298 3.07,0.889 6.631,-1.664 10.589,-0.319 -0.045,0.117 -0.086,0.207 -0.127,0.297 -3.729,0.433 -7.539,1.845 -11.097,1.731 -3.642,-3.121 -5.993,-4.943 -10.184,-2.001 0.021,0.04 0.041,0.067 0.066,0.09 -0.025,0.018 -0.045,0.044 -0.045,0.065 -0.082,0 -0.168,0 -0.233,-0.021 -1.589,1.705 -1.842,1.023 -3.531,0.117 -4.24,-4.037 -7.265,-3.355 -10.802,0.906 -4.215,3.146 -6.603,-6.377 -12.535,-0.955 -2.564,2.87 -2.139,2.713 -5.528,0.454 -4.763,-2.644 -5.949,-0.364 -9.105,3.238 m -5.507,-6.29 c 5.805,0.909 3.557,2.14 8.745,-1.732 3.475,-1.733 4.869,0.227 8.578,0.912 2.69,-2.3 5.928,-2.962 9.526,-2.755 5.062,3.078 3.349,2.732 7.879,-0.731 0.445,-0.228 1.12,-0.208 1.692,-0.613 3.41,0 4.89,0.248 7.834,2.324 3.113,1.503 6.417,-1.919 10.906,-0.073 3.643,1.69 5.271,1.258 9.277,1.345 -0.025,0.319 -0.045,0.642 -0.045,0.934 -6.202,1.094 -5.523,2.169 -10.291,-1.183 -4.256,-1.867 -6.922,2.142 -10.461,0.525 -6.987,-5.127 -6.987,-0.159 -13.336,1.116 -4.342,-2.098 -5.336,-2.988 -9.956,-0.999 -0.887,0.613 -2.412,1.954 -3.132,2.096 -5.147,-2.076 -6.03,-3.74 -10.523,-0.183 -1.947,1.386 -6.268,2.21 -6.693,-0.983 m 11.987,-4.146 c 0.127,-0.252 0.254,-0.505 0.401,-0.773 1.145,0 1.823,0.067 3.07,0.499 0.045,-0.045 0.086,-0.094 0.127,-0.162 3.222,0 3.708,-0.797 6.82,-1.705 2.518,-0.525 5.401,1.05 8.001,1.299 3.115,-1.186 3.942,-1.845 7.773,-2.279 2.412,0.069 3.896,0.319 6.181,1.594 2.566,1.186 3.347,-0.708 6.675,-0.137 0.102,0.229 0.209,0.431 0.335,0.64 -2.224,0.772 -6.732,2.983 -8.175,0.318 -2.666,-1.322 -5.822,-1.394 -8.553,-0.821 -1.632,0.754 -2.666,2.098 -4.257,2.098 -2.453,-0.641 -6.754,-2.691 -8.933,-0.798 -4.976,2.437 -4.256,2.028 -9.465,0.227 m 14.228,-3.512 c -0.065,-0.202 -0.167,-0.636 -0.36,-0.838 0.826,-1.347 3.304,0.223 4.171,0.703 1.353,0 2.772,-0.773 4.301,-1.345 0.147,0.068 0.315,0.46 0.421,0.662 -3.344,2.643 -4.702,1.597 -8.533,0.818" style="fill:#004b55;fill-opacity:1;fill-rule:nonzero;stroke:none" id="path2859"/></g><g id="g2861" transform="translate(276.0478,150.829)"><path d="m 0,0 c 0.775,-0.248 1.565,-0.602 2.136,-0.987 l -0.781,-2.44 -0.966,0.309 c -0.068,0.442 -0.097,0.956 -0.073,1.335 -0.234,0.226 -0.634,0.489 -1.16,0.658 -0.659,0.211 -1.298,0.13 -1.527,-0.587 -0.547,-1.709 3.74,-2.375 2.851,-5.151 -0.459,-1.434 -2.088,-2.14 -4.342,-1.418 -0.658,0.211 -1.434,0.56 -1.979,0.869 l 0.752,2.349 0.95,-0.304 c 0.078,-0.462 0.112,-1.011 0.078,-1.371 0.161,-0.152 0.561,-0.364 0.912,-0.477 0.732,-0.234 1.273,-0.054 1.473,0.571 0.498,1.556 -3.798,2.394 -2.929,5.109 C -4.127,-0.04 -2.37,0.759 0,0" style="fill:#004b55;fill-opacity:1;fill-rule:nonzero;stroke:none" id="path2863"/></g><g id="g2865" transform="translate(269.03,153.3356)"><path d="M 0,0 -0.391,-0.699 C -0.817,-0.736 -1.28,-0.716 -1.705,-0.625 L -4.642,-5.88 c 0.28,-0.286 0.559,-0.699 0.758,-1.067 l -0.382,-0.685 -3.876,2.167 0.383,0.685 c 0.418,0.023 0.916,0.001 1.306,-0.088 l 2.938,5.255 c -0.3,0.314 -0.56,0.698 -0.751,1.081 L -3.876,2.166 0,0 z" style="fill:#004b55;fill-opacity:1;fill-rule:nonzero;stroke:none" id="path2867"/></g><g id="g2869" transform="translate(254.144,160.5495)"><path d="M 0,0 1.805,1.863 C 2.912,1.526 4.062,0.88 5.055,-0.082 7.041,-2.006 7.084,-4.456 5.29,-6.308 3.284,-8.378 0.568,-8.354 -1.738,-6.12 c -0.673,0.652 -1.345,1.459 -1.818,2.208 l 1.794,1.851 0.74,-0.716 c -0.103,-0.437 -0.282,-0.865 -0.483,-1.227 0.219,-0.436 0.56,-0.922 1.057,-1.404 1.247,-1.208 2.745,-0.809 3.96,0.444 1.17,1.208 1.422,2.837 0.098,4.119 -0.287,0.278 -0.596,0.533 -0.906,0.7 L 1.468,-1.422 C 1.621,-1.705 1.73,-2.1 1.817,-2.452 L 1.282,-3.004 -1.41,-0.395 -0.875,0.157 C -0.598,0.134 -0.288,0.1 0,0" style="fill:#004b55;fill-opacity:1;fill-rule:nonzero;stroke:none" id="path2871"/></g><g id="g2873" transform="translate(254.0368,166.2586)"><path d="m 0,0 -0.683,-0.418 c -0.389,0.175 -0.783,0.42 -1.109,0.707 l -5.135,-3.146 c 0.106,-0.386 0.147,-0.883 0.141,-1.301 l -0.67,-0.41 -2.319,3.785 0.669,0.409 c 0.376,-0.183 0.8,-0.446 1.096,-0.715 l 5.134,3.146 C -2.983,2.478 -3.022,2.94 -3.002,3.367 L -2.319,3.785 0,0 z" style="fill:#004b55;fill-opacity:1;fill-rule:nonzero;stroke:none" id="path2875"/></g><g id="g2877" transform="translate(249.993,173.4411)"><path d="m 0,0 -0.749,-0.284 c -0.329,0.237 -0.686,0.545 -0.958,0.901 l -5.63,-2.134 c 0.031,-0.399 -0.015,-0.91 -0.105,-1.305 L -8.176,-3.1 -9.75,1.051 -9.016,1.329 c 0.33,-0.237 0.708,-0.602 0.944,-0.907 l 5.749,2.18 -0.742,1.821 C -3.432,4.399 -3.997,4.398 -4.487,4.426 L -4.847,5.374 -2.391,6.305 0,0 z" style="fill:#004b55;fill-opacity:1;fill-rule:nonzero;stroke:none" id="path2879"/></g><g id="g2881" transform="translate(246.6323,183.346)"><path d="M 0,0 -0.784,-0.164 C -1.072,0.121 -1.377,0.482 -1.59,0.877 L -7.483,-0.354 C -7.515,-0.752 -7.64,-1.25 -7.791,-1.626 l -0.768,-0.16 -0.906,4.346 0.768,0.161 c 0.288,-0.286 0.605,-0.706 0.79,-1.044 l 6.019,1.256 -0.448,1.916 C -2.703,4.882 -3.261,4.97 -3.741,5.073 L -3.948,6.066 -1.377,6.603 0,0 z" style="fill:#004b55;fill-opacity:1;fill-rule:nonzero;stroke:none" id="path2883"/></g><g id="g2885" transform="translate(236.6602,200.9885)"><path d="M 0,0 3.91,0.322 C 6.305,0.513 7.664,-0.896 7.859,-3.161 8.096,-5.916 6.774,-6.986 4.843,-7.153 L 0.647,-7.515 C 0.56,-7.8 0.334,-8.174 0.161,-8.405 l -0.781,-0.067 -0.336,3.903 0.781,0.067 C 0.059,-4.79 0.329,-5.121 0.471,-5.464 l 3.861,0.333 c 1.452,0.125 2.27,0.705 2.136,2.251 -0.107,1.254 -0.912,1.817 -2.219,1.689 L 0.137,-1.592 C 0.072,-1.952 -0.168,-2.343 -0.334,-2.65 l -0.782,-0.067 -0.298,3.459 0.782,0.067 C -0.421,0.596 -0.121,0.283 0,0" style="fill:#004b55;fill-opacity:1;fill-rule:nonzero;stroke:none" id="path2887"/></g><g id="g2889" transform="translate(243.9564,214.8157)"><path d="M 0,0 -0.801,0.015 C -1.036,0.28 -1.286,0.638 -1.344,0.946 l -5.027,-0.722 0,-0.015 6.331,-2.359 -0.027,-1.428 -6.496,-2.232 0,-0.016 5.05,-0.614 c 0.151,0.35 0.381,0.653 0.61,0.91 l 0.8,-0.014 -0.06,-3.256 -0.801,0.014 c -0.188,0.219 -0.391,0.468 -0.547,0.732 l -6.018,1.109 C -7.68,-7.31 -7.894,-7.66 -8.108,-7.979 l -0.785,0.015 0.063,3.44 5.789,2.075 10e-4,0.031 -5.71,2.194 0.064,3.44 0.8,-0.014 C -7.7,2.876 -7.482,2.534 -7.361,2.132 l 6.058,1.041 c 0.133,0.244 0.346,0.501 0.574,0.696 L 0.071,3.855 0,0 z" style="fill:#004b55;fill-opacity:1;fill-rule:nonzero;stroke:none" id="path2891"/></g><g id="g2893" transform="translate(240.9676,225.0501)"><path d="m 0,0 c -0.079,-0.656 -0.681,-1.11 -1.365,-1.028 -0.684,0.082 -1.163,0.666 -1.084,1.321 0.079,0.656 0.683,1.125 1.367,1.043 C -0.398,1.254 0.078,0.656 0,0" style="fill:#004b55;fill-opacity:1;fill-rule:nonzero;stroke:none" id="path2895"/></g><g id="g2897" transform="translate(240.1898,240.0937)"><path d="M 0,0 3.811,-0.931 C 6.143,-1.507 6.987,-3.273 6.457,-5.484 5.811,-8.174 4.219,-8.771 2.335,-8.318 l -4.095,0.983 c -0.173,-0.243 -0.505,-0.527 -0.742,-0.691 l -0.763,0.183 0.914,3.81 0.763,-0.183 c 0.131,-0.348 0.282,-0.748 0.309,-1.117 l 3.767,-0.905 c 1.417,-0.34 2.376,-0.049 2.738,1.46 0.294,1.225 -0.29,2.013 -1.571,2.305 l -4.028,0.919 C -0.548,-1.875 -0.899,-2.17 -1.154,-2.409 l -0.763,0.183 0.81,3.377 0.763,-0.183 C -0.211,0.699 -0.025,0.306 0,0" style="fill:#004b55;fill-opacity:1;fill-rule:nonzero;stroke:none" id="path2899"/></g><g id="g2901" transform="translate(246.4281,254.6796)"><path d="m 0,0 6.636,-3.376 -0.829,-1.63 -7.822,-1.002 4.643,-2.069 c 0.267,0.243 0.606,0.45 0.994,0.684 l 0.713,-0.363 -1.693,-3.328 -0.713,0.363 c -0.04,0.451 -0.066,0.895 -0.012,1.247 L -3.4,-6.682 C -3.695,-6.98 -4.076,-7.235 -4.45,-7.475 l -0.699,0.355 1.574,3.095 6.978,0.897 -4.058,1.841 c -0.253,-0.25 -0.599,-0.437 -0.953,-0.601 l -0.699,0.355 1.484,2.917 0.7,-0.356 C -0.056,0.666 0.011,0.339 0,0" style="fill:#004b55;fill-opacity:1;fill-rule:nonzero;stroke:none" id="path2903"/></g><g id="g2905" transform="translate(256.2589,255.7383)"><path d="m 0,0 -0.592,0.539 c 0.061,0.423 0.186,0.87 0.371,1.263 l -4.45,4.056 C -5.013,5.65 -5.479,5.471 -5.883,5.361 l -0.58,0.529 2.991,3.281 0.581,-0.528 C -2.964,8.231 -3.098,7.75 -3.274,7.391 L 1.176,3.335 C 1.55,3.555 1.984,3.722 2.399,3.821 L 2.991,3.282 0,0 z" style="fill:#004b55;fill-opacity:1;fill-rule:nonzero;stroke:none" id="path2907"/></g><g id="g2909" transform="translate(265.7533,272.7708)"><path d="m 0,0 1.415,-7.897 -1.613,-0.984 -6.395,4.88 c -0.254,-0.024 -0.555,0.056 -0.852,0.1 l -0.408,0.67 3.292,2.007 0.409,-0.67 c -0.141,-0.33 -0.299,-0.632 -0.517,-0.953 l 4.494,-3.506 0.027,0.016 -1.308,5.449 c -0.32,-0.064 -0.756,-0.029 -1.083,-0.023 l -0.409,0.671 2.807,1.711 0.409,-0.67 C 0.202,0.554 0.143,0.237 0,0" style="fill:#004b55;fill-opacity:1;fill-rule:nonzero;stroke:none" id="path2911"/></g><g id="g2913" transform="translate(274.3434,268.3577)"><path d="m 0,0 -0.219,0.77 c 0.268,0.293 0.601,0.637 0.98,0.878 L -0.883,7.424 C -1.287,7.442 -1.801,7.562 -2.179,7.655 L -2.393,8.409 3.99,10.226 4.595,8.1 3.635,7.827 C 3.397,8.043 3.049,8.426 2.887,8.713 L 1.055,8.192 1.752,5.743 3.259,6.172 c 0.018,0.272 0.14,0.573 0.225,0.78 L 4.282,7.179 4.966,4.776 4.168,4.549 C 3.997,4.701 3.697,4.915 3.557,5.125 L 2.05,4.696 2.808,2.031 4.64,2.553 C 4.628,2.932 4.717,3.407 4.807,3.765 L 5.781,4.043 6.413,1.825 0,0 z" style="fill:#004b55;fill-opacity:1;fill-rule:nonzero;stroke:none" id="path2915"/></g><g id="g2917" transform="translate(293.8708,271.8202)"><path d="m 0,0 -0.113,0.939 c -1.164,-0.263 -1.307,2.94 -2.811,3.033 1.135,0.421 1.77,1.265 1.677,2.333 C -1.396,7.997 -2.651,8.594 -4.87,8.399 -6.095,8.292 -7.543,8.101 -7.895,8.07 L -8.982,7.974 -8.913,7.193 C -8.543,7.016 -8.11,6.829 -7.686,6.738 L -7.159,0.739 C -7.592,0.572 -8.001,0.311 -8.287,0.061 l 0.07,-0.798 4.132,0.363 -0.07,0.797 c -0.277,0.169 -0.636,0.395 -0.984,0.493 l -0.196,2.234 0.49,0.042 C -3.345,3.324 -3.37,-0.44 -1.38,-0.266 -0.905,-0.224 -0.373,-0.145 0,0 M -4.736,4.408 -5.44,4.346 -5.675,7.027 c 0.15,0.045 0.424,0.085 0.547,0.096 1.148,0.1 1.742,-0.346 1.822,-1.255 0.064,-0.734 -0.328,-1.363 -1.43,-1.46" style="fill:#004b55;fill-opacity:1;fill-rule:nonzero;stroke:none" id="path2919"/></g><g id="g2921" transform="translate(301.1321,271.5076)"><path d="m 0,0 c -0.813,0.038 -1.668,0.174 -2.319,0.396 l 0.12,2.56 1.012,-0.047 C -1.006,2.5 -0.844,2.011 -0.769,1.639 -0.485,1.482 -0.03,1.332 0.522,1.306 1.213,1.274 1.808,1.519 1.843,2.271 1.927,4.063 -2.385,3.59 -2.25,6.501 c 0.07,1.504 1.46,2.61 3.823,2.5 0.69,-0.032 1.53,-0.167 2.138,-0.323 L 3.596,6.214 2.598,6.26 C 2.403,6.686 2.227,7.207 2.167,7.563 1.972,7.668 1.531,7.769 1.163,7.786 0.395,7.822 -0.081,7.507 -0.111,6.851 -0.187,5.219 4.179,5.53 4.046,2.682 3.973,1.114 2.486,-0.115 0,0" style="fill:#004b55;fill-opacity:1;fill-rule:nonzero;stroke:none" id="path2923"/></g><g id="g2925" transform="translate(309.746,270.9357)"><path d="M 0,0 0.143,0.788 C 0.534,0.961 0.979,1.092 1.41,1.144 L 2.486,7.068 C 2.128,7.247 1.73,7.548 1.423,7.831 L 1.563,8.604 5.931,7.81 5.79,7.037 C 5.403,6.88 4.924,6.739 4.527,6.698 L 3.45,0.773 C 3.835,0.572 4.206,0.293 4.511,-0.006 L 4.368,-0.794 0,0 z" style="fill:#004b55;fill-opacity:1;fill-rule:nonzero;stroke:none" id="path2927"/></g><g id="g2929" transform="translate(327.5402,272.1235)"><path d="m 0,0 c -0.026,0.476 -0.056,1.108 0.004,1.55 l -1.37,0.545 -2.278,-5.73 c 0.335,-0.237 0.646,-0.619 0.9,-0.979 l -0.296,-0.744 -4.14,1.647 0.296,0.744 c 0.446,0.081 0.92,0.151 1.327,0.093 L -3.279,2.855 -4.65,3.4 C -4.889,3.047 -5.377,2.569 -5.71,2.271 L -6.595,2.623 -5.619,5.079 1.876,2.098 0.899,-0.358 0,0 z" style="fill:#004b55;fill-opacity:1;fill-rule:nonzero;stroke:none" id="path2931"/></g><g id="g2933" transform="translate(339.1276,267.9153)"><path d="m 0,0 -1.755,1.372 -6.795,-4.18 c -0.273,0.051 -0.621,0.079 -0.921,0.069 l -0.493,-0.63 2.554,-1.996 0.493,0.631 c -0.087,0.312 -0.199,0.643 -0.386,0.952 l 0.913,0.546 2.482,-1.94 -0.309,-1.018 c -0.333,0.098 -0.705,0.145 -1.029,0.154 l -0.493,-0.631 3.038,-2.374 0.493,0.631 c -0.037,0.252 -0.134,0.552 -0.241,0.839 L 0,0 z m -2.259,-0.47 c -0.142,-0.357 -0.293,-0.726 -0.419,-1.136 l -0.806,-2.478 -1.961,1.532 2.272,1.435 c 0.345,0.218 0.645,0.451 0.902,0.656 l 0.012,-0.009 z" style="fill:#004b55;fill-opacity:1;fill-rule:nonzero;stroke:none" id="path2935"/></g><g id="g2937" transform="translate(347.696,254.0116)"><path d="M 0,0 C 0.241,0.411 0.566,0.954 0.86,1.289 L 0.02,2.5 -5.047,-1.014 c 0.149,-0.383 0.197,-0.873 0.21,-1.313 l -0.658,-0.456 -2.54,3.66 0.658,0.456 C -6.96,1.154 -6.527,0.951 -6.22,0.677 l 5.066,3.514 -0.84,1.212 C -2.389,5.241 -3.06,5.112 -3.503,5.048 L -4.046,5.831 -1.874,7.337 2.723,0.711 0.552,-0.795 0,0 z" style="fill:#004b55;fill-opacity:1;fill-rule:nonzero;stroke:none" id="path2939"/></g><g id="g2941" transform="translate(345.1914,245.5485)"><path d="M 0,0 0.743,0.297 C 1.098,0.059 1.445,-0.249 1.718,-0.587 l 5.59,2.236 C 7.27,2.048 7.312,2.544 7.389,2.956 L 8.118,3.247 9.767,-0.874 9.038,-1.166 c -0.339,0.245 -0.713,0.575 -0.96,0.89 L 2.488,-2.512 C 2.523,-2.945 2.484,-3.407 2.393,-3.824 L 1.649,-4.122 0,0 z" style="fill:#004b55;fill-opacity:1;fill-rule:nonzero;stroke:none" id="path2943"/></g><g id="g2945" transform="translate(348.7008,234.312)"><path d="M 0,0 C -0.18,0.794 -0.277,1.654 -0.236,2.341 L 2.262,2.909 2.487,1.92 C 2.141,1.637 1.713,1.35 1.375,1.179 1.299,0.862 1.276,0.385 1.399,-0.155 1.552,-0.829 1.947,-1.338 2.681,-1.171 4.43,-0.773 2.824,3.257 5.666,3.903 7.134,4.237 8.571,3.193 9.095,0.886 9.248,0.212 9.342,-0.633 9.354,-1.26 L 6.948,-1.807 6.727,-0.833 c 0.358,0.302 0.814,0.61 1.14,0.763 C 7.917,0.146 7.896,0.598 7.814,0.958 7.644,1.706 7.214,2.081 6.573,1.936 4.981,1.573 6.444,-2.552 3.664,-3.184 2.134,-3.532 0.552,-2.427 0,0" style="fill:#004b55;fill-opacity:1;fill-rule:nonzero;stroke:none" id="path2947"/></g><g id="g2949" transform="translate(354.3246,225.0499)"><path d="M 0,0 C -0.078,0.656 0.4,1.239 1.084,1.321 1.768,1.403 2.37,0.949 2.449,0.293 2.528,-0.362 2.051,-0.961 1.367,-1.043 0.683,-1.125 0.078,-0.656 0,0" style="fill:#004b55;fill-opacity:1;fill-rule:nonzero;stroke:none" id="path2951"/></g><g id="g2953" transform="translate(351.1455,218.8444)"><path d="m 0,0 0.8,0.034 c 0.238,-0.328 0.48,-0.733 0.626,-1.157 l 6.015,0.255 c 0.096,0.388 0.3,0.858 0.51,1.205 L 8.735,0.37 8.923,-4.065 8.139,-4.098 C 7.901,-3.77 7.656,-3.304 7.529,-2.94 L 1.386,-3.201 1.517,-5.163 C 1.873,-5.256 2.41,-5.433 2.866,-5.614 L 2.909,-6.627 0.285,-6.738 0,0 z" style="fill:#004b55;fill-opacity:1;fill-rule:nonzero;stroke:none" id="path2955"/></g><g id="g2957" transform="translate(358.5165,199.5031)"><path d="m 0,0 -3.919,0.18 c -2.399,0.117 -3.567,1.688 -3.471,3.96 0.116,2.762 1.563,3.655 3.499,3.573 L 0.317,7.536 C 0.44,7.808 0.711,8.15 0.912,8.357 L 1.696,8.324 1.532,4.41 0.748,4.443 C 0.553,4.758 0.327,5.122 0.23,5.479 L -3.641,5.642 C -5.097,5.704 -5.982,5.234 -6.047,3.683 -6.1,2.425 -5.375,1.764 -4.062,1.724 L 0.067,1.596 C 0.178,1.945 0.465,2.302 0.67,2.586 L 1.453,2.553 1.308,-0.916 0.524,-0.883 C 0.342,-0.645 0.084,-0.296 0,0" style="fill:#004b55;fill-opacity:1;fill-rule:nonzero;stroke:none" id="path2959"/></g><g id="g2961" transform="translate(359.2734,193.1472)"><path d="m 0,0 -0.774,0.13 c -0.282,-0.327 -0.577,-0.729 -0.748,-1.074 l -5.94,0.995 c -0.057,0.43 -0.194,0.873 -0.373,1.261 l -0.79,0.133 -0.198,-1.182 c -0.195,-1.167 -0.402,-2.207 -0.524,-2.934 -0.501,-2.985 0.751,-4.332 2.078,-4.554 0.948,-0.159 1.957,0.342 2.339,1.649 0.093,-1.091 0.76,-1.67 1.565,-1.804 1.422,-0.239 2.31,0.703 2.689,2.96 0.188,1.121 0.358,2.526 0.483,3.268 L 0,0 z M -5.27,-2.373 -5.397,-3.13 c -0.221,-1.318 -0.803,-2.078 -1.687,-1.93 -0.743,0.125 -1.307,0.733 -1.111,1.9 0.089,0.53 0.223,0.944 0.366,1.216 l 2.559,-0.429 z m 3.586,-0.6 c -0.019,-0.309 -0.065,-0.581 -0.129,-0.96 -0.19,-1.137 -0.812,-1.453 -1.538,-1.331 -0.727,0.121 -1.198,0.605 -0.984,1.878 0.053,0.318 0.101,0.606 0.155,0.831 l 2.496,-0.418 z" style="fill:#004b55;fill-opacity:1;fill-rule:nonzero;stroke:none" id="path2963"/></g><g id="g2965" transform="translate(348.2726,182.425)"><path d="m 0,0 0.758,-0.257 c 0.089,-0.387 0.184,-0.856 0.167,-1.305 l 5.689,-1.925 c 0.245,0.323 0.635,0.677 0.926,0.935 l 0.743,-0.251 -2.128,-6.286 -2.094,0.709 0.32,0.946 c 0.312,0.072 0.826,0.142 1.154,0.112 l 0.611,1.804 -2.412,0.816 -0.502,-1.484 c 0.213,-0.169 0.391,-0.44 0.514,-0.628 L 3.48,-7.6 1.113,-6.799 1.38,-6.013 c 0.221,0.055 0.568,0.18 0.82,0.176 l 0.503,1.484 -2.625,0.888 -0.611,-1.804 c 0.319,-0.205 0.66,-0.547 0.904,-0.825 L 0.046,-7.054 -2.138,-6.314 0,0 z" style="fill:#004b55;fill-opacity:1;fill-rule:nonzero;stroke:none" id="path2967"/></g><g id="g2969" transform="translate(341.9861,168.3935)"><path d="M 0,0 C 1.525,2.525 3.587,3.057 5.889,1.665 8.59,0.034 9.034,-2.514 7.628,-4.841 7.104,-5.709 6.573,-6.34 6.11,-6.796 l -2.467,1.49 0.54,0.895 c 0.495,-0.048 1.035,-0.177 1.444,-0.335 0.289,0.167 0.601,0.499 0.84,0.893 0.691,1.145 0.193,2.396 -1.466,3.398 C 3.425,0.498 2.055,0.212 1.031,-1.484 0.705,-2.023 0.441,-2.708 0.365,-3.361 L -0.834,-2.96 C -0.867,-2.025 -0.58,-0.96 0,0" style="fill:#004b55;fill-opacity:1;fill-rule:nonzero;stroke:none" id="path2971"/></g><g id="g2973" transform="translate(338.0439,162.6459)"><path d="M 0,0 0.549,-0.583 C 0.447,-0.966 0.309,-1.425 0.084,-1.814 l 4.121,-4.368 c 0.368,0.171 0.879,0.3 1.257,0.393 L 6,-6.36 l -4.828,-4.554 -1.517,1.607 0.727,0.686 c 0.31,-0.083 0.796,-0.262 1.071,-0.443 l 1.386,1.307 -1.747,1.853 -1.14,-1.076 c 0.109,-0.249 0.139,-0.573 0.16,-0.796 l -0.604,-0.569 -1.714,1.817 0.603,0.57 c 0.222,-0.056 0.587,-0.107 0.808,-0.23 l 1.14,1.076 -1.901,2.015 -1.386,-1.307 c 0.185,-0.331 0.326,-0.793 0.411,-1.153 L -3.268,-6.253 -4.851,-4.575 0,0 z" style="fill:#004b55;fill-opacity:1;fill-rule:nonzero;stroke:none" id="path2975"/></g><g id="g2977" transform="translate(325.3214,145.0898)"><path d="M 0,0 -3.273,6.687 -1.631,7.491 5.222,3.59 2.756,8.034 C 2.396,8.001 2.001,8.039 1.55,8.086 L 1.198,8.805 4.551,10.447 4.903,9.727 C 4.664,9.343 4.418,8.973 4.163,8.723 L 6.734,3.296 C 7.149,3.357 7.606,3.331 8.05,3.299 L 8.395,2.594 5.276,1.068 -0.839,4.545 1.297,0.635 C 1.65,0.683 2.038,0.623 2.42,0.543 l 0.345,-0.705 -2.94,-1.439 -0.344,0.705 C -0.356,-0.566 -0.213,-0.264 0,0" style="fill:#004b55;fill-opacity:1;fill-rule:nonzero;stroke:none" id="path2979"/></g><g id="g2981" transform="translate(314.8244,149.8547)"><path d="m 0,0 c 0.795,0.176 1.655,0.269 2.342,0.224 l 0.554,-2.501 -0.99,-0.22 C 1.625,-2.149 1.341,-1.72 1.171,-1.38 0.855,-1.303 0.378,-1.278 -0.162,-1.397 -0.837,-1.547 -1.348,-1.939 -1.186,-2.674 -0.798,-4.425 3.241,-2.84 3.872,-5.686 4.197,-7.155 3.145,-8.585 0.836,-9.097 0.161,-9.247 -0.685,-9.336 -1.312,-9.344 l -0.534,2.408 0.975,0.215 c 0.3,-0.359 0.606,-0.816 0.757,-1.144 0.216,-0.05 0.668,-0.032 1.028,0.048 0.75,0.166 1.127,0.594 0.985,1.235 -0.353,1.594 -4.487,0.153 -5.103,2.936 C -3.544,-2.114 -2.43,-0.539 0,0" style="fill:#004b55;fill-opacity:1;fill-rule:nonzero;stroke:none" id="path2983"/></g><g id="g2985" transform="translate(306.8911,148.3182)"><path d="m 0,0 0.064,-0.798 c -0.333,-0.268 -0.73,-0.509 -1.133,-0.67 l 0.483,-6.002 c 0.392,-0.081 0.854,-0.269 1.224,-0.464 l 0.063,-0.783 -4.426,-0.356 -0.063,0.783 c 0.335,0.251 0.761,0.511 1.135,0.653 l -0.483,6.003 c -0.424,0.094 -0.854,0.269 -1.226,0.48 L -4.426,-0.356 0,0 z" style="fill:#004b55;fill-opacity:1;fill-rule:nonzero;stroke:none" id="path2987"/></g><g id="g2989" transform="translate(295.5035,148.045)"><path d="M 0,0 C 0.814,-0.02 1.672,-0.137 2.327,-0.345 L 2.265,-2.906 1.251,-2.882 c -0.19,0.406 -0.362,0.89 -0.446,1.261 -0.288,0.151 -0.745,0.29 -1.298,0.304 -0.691,0.017 -1.281,-0.241 -1.3,-0.994 -0.044,-1.793 4.258,-1.225 4.187,-4.138 -0.037,-1.505 -1.401,-2.641 -3.766,-2.583 -0.692,0.017 -1.534,0.133 -2.145,0.277 l 0.06,2.465 0.998,-0.025 c 0.205,-0.421 0.392,-0.938 0.461,-1.292 0.197,-0.101 0.64,-0.192 1.009,-0.201 0.768,-0.019 1.237,0.306 1.253,0.962 0.039,1.633 -4.319,1.227 -4.25,4.076 C -3.948,-1.201 -2.488,0.061 0,0" style="fill:#004b55;fill-opacity:1;fill-rule:nonzero;stroke:none" id="path2991"/></g><g id="g2993" transform="translate(284.5193,144.9343)"><path d="M 0,0 C 0.654,-0.094 1.093,-0.708 0.995,-1.389 0.896,-2.071 0.302,-2.535 -0.352,-2.441 -1.006,-2.346 -1.46,-1.731 -1.362,-1.049 -1.263,-0.368 -0.654,0.095 0,0" style="fill:#004b55;fill-opacity:1;fill-rule:nonzero;stroke:none" id="path2995"/></g></g></g></g></svg>